<svg version="1.1" id="Layer_1" xmlns="http://www.w3.org/2000/svg" xmlns:xlink="http://www.w3.org/1999/xlink" x="0px" y="0px" width="210.524" viewBox="0 0 210.524 230" enable-background="new 0 0 227 248" xml:space="preserve" height="230"><path fill="none" opacity="1.000000" stroke="none" d="M211.451 85.323v145.604H0.927v-230h210.524zm-78.985 47.32c0.029 -0.313 0.06 -0.625 0.427 -1.548 0.325 -1.354 0.653 -2.709 1.356 -4.6l2.551 -9.206c-2.709 0.546 -4.162 2.01 -5.912 2.621 -2.376 0.827 -4.981 1.002 -7.742 0.812 -0.465 -1.042 -0.931 -2.085 -1.211 -3.465 0.003 -0.282 -0.109 -0.506 -0.204 -1.303 0.445 -0.937 1.155 -1.841 1.278 -2.819 0.21 -1.667 0.263 -3.429 -0.105 -5.041 -0.089 -0.388 -2.894 -0.756 -3.068 -0.418 -0.744 1.437 -1.066 3.126 -1.349 4.758 -0.159 0.926 0.423 2.103 0.044 2.847 -1.384 2.712 -7.501 5.147 -10.527 4.297 -3.783 -1.063 -3.863 -4.276 -3.756 -7.873 1.456 -1.893 2.912 -3.787 4.969 -5.909 9.394 -6.887 10.013 -11.689 3.463 -21.239 -2.278 -3.32 -3.52 -7.35 -5.156 -10.886 -4.403 3.651 -4.795 5.397 -1.389 12.533 2.452 5.136 4.068 10.05 -1.128 15.053 -2.267 2.351 -4.533 4.702 -7.308 7.458 -0.578 1.066 -1.128 2.149 -1.739 3.197 -3.148 5.392 -8.227 5.781 -12.132 0.916 -0.853 -1.063 -1.582 -2.225 -2.451 -4.008 0.145 -1.384 0.553 -2.803 0.371 -4.142 -0.241 -1.771 -0.619 -3.712 -1.612 -5.097 -0.374 -0.524 -3.666 0 -3.831 0.566 -0.48 1.662 -0.759 4.545 0.154 5.211 2.106 1.54 1.78 3.144 1.285 5.677 -3.227 9.74 -5.039 10.502 -13.783 5.085 -1.989 -1.343 -3.287 -2.739 -2.59 -5.616 0.226 -0.933 -1.812 -2.905 -3.205 -3.532 -0.712 -0.32 -3.197 1.201 -3.276 2.042 -0.144 1.524 0.618 3.372 1.558 4.687 0.763 1.066 2.343 1.548 3.622 2.984 0.341 0.566 0.683 1.131 0.834 2.355 0.9 2.559 1.801 5.12 2.667 8.382l2.164 7.955c20.687 -5.303 40.983 -6.356 61.398 -0.998 1.47 0.386 3.29 -0.56 5.053 -1.088l-0.049 -0.298s-0.053 -0.052 0.327 -0.346m0.809 7.703c-0.529 -0.077 -1.057 -0.154 -2.14 -0.57 -1.469 -0.292 -2.937 -0.582 -4.797 -1.286 -0.37 -0.021 -0.739 -0.044 -1.866 -0.319 -12.669 -2.271 -25.445 -2.069 -38.692 -1.818 -0.146 0.063 -0.293 0.126 -1.15 0.082 -1.625 0.279 -3.249 0.559 -5.345 0.733 -0.149 0.062 -0.299 0.124 -1.085 0.063 -0.417 0.1 -0.834 0.201 -1.809 0.2 -0.313 0.187 -0.624 0.374 -1.572 0.457 -1.444 0.332 -2.888 0.665 -4.838 0.923 -0.143 0.093 -0.286 0.185 -1.104 0.249 -1.658 0.554 -3.317 1.107 -5.643 1.699 -1.382 0.645 -2.764 1.289 -4.651 1.936 -0.397 0.268 -0.792 0.536 -1.658 0.906 -0.113 0.114 -0.226 0.228 -0.763 0.422 -0.262 0.155 -0.436 0.378 -1.02 0.742 -0.202 0.257 -0.406 0.513 -1.202 1.005 -3.732 3.499 -2.342 7.766 -1.896 12.479 0.153 0.344 0.306 0.689 0.381 1.179 0 0 0.054 0.158 -0.053 0.875 0.324 1.621 0.647 3.242 0.992 5.608 0.226 0.966 0.45 1.933 0.578 3.464 0.168 0.326 0.338 0.653 0.385 1.529 0.162 0.533 0.324 1.066 0.398 2.071 0.07 0.144 0.139 0.29 0.179 1.15 0.272 1.202 0.556 2.4 0.813 3.605 3.464 16.202 9.952 30.477 24.776 39.932 -1.86 -0.373 -4.236 -0.145 -5.488 -1.224 -4.839 -4.173 -9.333 -8.75 -13.93 -13.202 -3.599 -3.487 -7.162 -7.011 -10.76 -10.487 0 0 0.013 -0.015 -0.229 -0.464 -0.313 -0.11 -0.625 -0.218 -1.05 -0.54 0 0 -0.239 0.018 -0.694 -0.491 -5.595 -1.952 -11.192 -3.905 -17.241 -6.261 -0.783 -0.168 -1.565 -0.336 -2.903 -0.85 -2.821 -1.448 -5.641 -2.896 -8.76 -4.858a10.455 10.455 0 0 1 -1.649 -1.405c-0.415 -0.391 -0.83 -0.784 -1.532 -1.718 -0.763 -0.949 -1.526 -1.899 -2.541 -3.663 1.26 -0.69 2.712 -2.18 3.742 -1.929 4.32 1.048 8.513 2.618 12.752 3.997 -1.35 -6.366 -12.904 -10.056 -21.824 -6.607 1.226 2.465 2.438 4.9 3.652 7.833a19.864 19.864 0 0 1 1.397 2.216c2.936 2.494 5.871 4.989 8.926 7.972 -0.026 0.165 -0.052 0.331 -0.714 0.455 -0.414 0.087 -0.827 0.175 -1.912 0.221 -1.592 0.562 -3.28 0.946 -4.762 1.719 -7.115 3.709 -9.492 12.458 -5.091 18.425 2.51 3.405 7.488 4.982 11.129 3.309 3.385 -1.555 5.257 -4.242 4.924 -8.096 -0.388 -4.494 -4.855 -7.077 -8.247 -4.707 -0.853 0.596 -1.193 1.927 -1.768 2.92 0.979 0.35 1.942 0.754 2.942 1.039 0.905 0.257 2.533 0.202 2.64 0.604 0.272 1.025 0.176 3.036 -0.312 3.218 -1.95 0.731 -4.391 1.744 -6.125 1.141 -4.435 -1.544 -5.562 -7.852 -2.038 -11.664 2.003 -2.166 4.93 -3.479 8.252 -5.15 2.274 -0.164 4.648 -0.827 6.801 -0.391 4.863 0.985 9.617 2.512 13.779 4.155 -0.842 0.209 -1.673 0.52 -2.528 0.608 -6.05 0.625 -9.541 3.972 -10.785 11.001 0.258 6.294 1.953 8.539 8.226 10.282 0.418 -0.061 0.837 -0.12 1.928 -0.094 6.444 -2.195 7.085 -3.911 3.848 -12.805l13.35 2.472c-2.008 2.214 -4.006 3.05 -5.564 4.394 -2.807 2.424 -3.309 6.983 -1.119 9.63 2.55 3.08 5.535 3.49 8.925 1.06 0.784 -0.562 2.173 -0.644 3.194 -0.456a656.545 656.545 0 0 1 24.402 4.933c0.44 0.013 0.882 0.025 1.972 0.272 2.291 0.116 4.594 0.44 6.869 0.299 3.495 -0.218 6.97 -0.758 11.163 -1.17 3.698 -0.371 7.396 -0.742 11.874 -1.086 6.449 -1.222 12.893 -2.474 19.356 -3.624 0.626 -0.111 1.416 0.294 2.039 0.629 4.6 2.471 7.75 1.927 9.769 -1.742 1.904 -3.459 0.316 -7.994 -3.624 -10.167 -1.128 -0.623 -2.352 -1.071 -3.725 -1.685 1.029 -0.76 1.754 -1.296 3.233 -1.869l10.128 -1.684c-3.101 8.045 -1.631 11.704 4.114 12.623 3.837 0.614 7.609 -1.589 9.187 -5.366 2.97 -7.11 -1.753 -14.223 -11.129 -15.953a13.591 13.591 0 0 1 -2.674 -0.128c-0.593 0.029 -1.186 0.059 -1.625 -0.351 0.432 -0.445 0.864 -0.892 1.831 -1.328 0.254 -0.232 0.507 -0.462 1.092 -0.661 0 0 0.227 -0.244 0.81 -0.21 0.502 -0.261 1.005 -0.524 1.883 -0.733 0 0 0.303 -0.228 0.942 -0.206 1.017 -0.309 2.035 -0.619 3.686 -0.788 0.414 -0.102 0.827 -0.206 2.055 -0.204 2.183 -0.096 4.366 -0.193 7.256 0.017 1.02 0.025 2.041 0.051 3.628 0.289 0.396 0.069 0.792 0.137 1.647 0.626 4.394 1.407 7.683 3.973 8.632 8.722 0.973 4.862 -3.698 9.719 -7.8 7.943 -1.284 -0.556 -1.873 -2.717 -2.781 -4.143 0.929 -0.507 1.814 -1.141 2.799 -1.483 0.933 -0.326 1.971 -0.349 2.963 -0.506 -0.649 -1.09 -1.142 -2.945 -1.977 -3.115 -1.776 -0.362 -4.822 -0.505 -5.39 0.44 -1.278 2.123 -2.523 5.499 -1.651 7.381 1.182 2.555 4.097 5.374 6.733 5.944 4.078 0.884 9.101 -3.647 10.231 -7.707 2.193 -7.882 -2.648 -14.592 -12.695 -17.057 -0.259 -0.137 -0.579 -0.226 -0.75 -0.436 -0.072 -0.089 0.106 -0.55 0.278 -0.644 7.168 -3.917 11.076 -10.143 13.17 -17.866 -7.951 -1.694 -10.699 -1.057 -13.919 3.405h8.929l0.893 1.508c-3.587 3.352 -7.175 6.702 -11.418 10.192 -1.651 0.662 -3.304 1.322 -5.639 1.882 -1.684 0.487 -3.366 0.986 -5.071 1.388 -0.04 0.009 -0.335 -1.059 0.065 -1.871 0.981 -1.039 1.959 -2.077 3.515 -3.395 1.447 -2.665 2.892 -5.328 4.899 -8.367 0.062 -1.117 0.122 -2.233 0.097 -3.399 0 0 0.045 0.089 0.752 -0.292 -0.215 -2.574 -0.43 -5.147 -0.088 -8.213 -2.966 -8.645 -9.172 -12.37 -19.028 -11.078l-6.922 2.303a70.045 70.045 0 0 1 -1.094 -3.736c-1.348 -1.239 -2.696 -2.478 -4.409 -4.079 -0.774 -0.341 -1.548 -0.681 -2.734 -1.514 -1.203 -0.394 -2.408 -0.788 -3.994 -1.453 -0.155 0.003 -0.31 0.004 -0.818 -0.41m57.784 -41.084s0.036 0.041 0.523 -0.447c-0.144 -3.371 -0.287 -6.74 -0.51 -10.732 -2.296 -4.158 -5.899 -6.38 -10.567 -6.257 -8.002 0.211 -11.836 5.92 -14.358 11.198 -3.344 -2.936 -6.321 -6.612 -10.165 -8.671 -5.725 -3.066 -11.598 -0.501 -14.82 5.352 -2.341 4.255 -0.876 10.509 3.201 13.665 4.76 3.684 11.964 1.679 13.774 -3.835 1.167 -3.558 -0.913 -7.69 -4.234 -7.767 -1.439 -0.033 -3.076 0.98 -4.276 1.947 -0.466 0.375 0.022 1.936 0.075 2.959 1.353 -0.159 2.704 -0.341 4.061 -0.453 0.246 -0.021 0.515 0.249 0.858 0.428 1.087 3.586 -0.981 4.76 -4.019 4.943 -3.944 0.239 -6.722 -2.481 -6.856 -6.501 -0.149 -4.48 2.924 -7.939 7.216 -7.882 4.522 0.062 8.022 2.138 10.245 6.072 2.723 4.818 2.894 9.853 -0.161 14.487 -2.19 3.323 -5.064 6.2 -7.658 9.254 -4.254 5.011 -5.948 10.773 -4.809 17.235 0.304 1.722 1.314 3.32 2 4.974l1.164 -0.386c-0.105 -2.096 -0.198 -4.192 -0.317 -6.288 -0.431 -7.576 3.895 -14.83 10.198 -17.09 3.881 -1.391 7.329 -0.601 10.252 2.221 2.869 2.768 3.188 6.304 2.25 9.89 -0.912 3.491 -5.148 5.898 -8.38 4.899 -3.503 -1.084 -4.894 -3.658 -4.127 -7.194 0.736 -3.4 2.917 -3.857 5.434 -1.721l-1.822 4.456c1.105 0.338 2.765 1.292 3.208 0.894 1.235 -1.113 2.686 -2.755 2.747 -4.242 0.136 -3.297 -1.789 -5.491 -5.276 -5.858 -4.202 -0.442 -7.512 2.263 -8.07 6.523 -0.6 4.577 2.959 9.433 7.597 10.092 4.667 0.662 8.563 -0.813 11.215 -4.859 2.458 -3.752 2.251 -9.913 -0.95 -13.43 -2.198 -2.415 -5.146 -4.147 -8.025 -6.393 1.839 -1.027 3.799 -2.121 6.255 -3.223 0.232 -0.213 0.464 -0.429 0.555 -0.653 0 0 0.056 0.13 0.743 0.028l2.465 -0.45c-0.671 3.774 -0.612 7.206 3.769 7.948 0.878 0.149 3.128 -2.187 2.975 -2.494 -0.804 -1.614 -2.178 -2.943 -3.528 -4.583 2.246 -2.269 4.754 -0.447 7.404 2.102 1.648 5.882 1.121 6.633 -7.42 11.243 2.328 0.456 4.958 0.959 6.887 0.021 5.269 -2.56 5.772 -9.834 1.119 -15.357 -0.137 -0.924 -0.275 -1.847 0.063 -3.009 0.423 -0.539 0.848 -1.079 1.757 -1.963 0.13 -0.366 0.261 -0.733 0.339 -1.091m-73.326 -58.803c1.283 -3.04 2.137 -6.058 -0.775 -9.562l-7.586 -2.523c-2.235 -3.949 -4.145 -8.046 -6.725 -11.667 -2.245 -3.15 -5.68 -2.934 -7.861 -0.033 -2.678 3.561 -4.577 7.708 -7.197 12.273 0.6 0.067 0.028 0.029 -0.534 -0.062 -3.972 -0.647 -6.726 1.076 -7.981 4.706 -1.349 3.897 -0.19 7.532 3.134 9.83 1.333 0.92 3.908 0.891 5.525 0.27 1.195 -0.459 2.48 -2.625 2.39 -3.941 -0.093 -1.353 -1.802 -2.597 -2.804 -3.889l-1.255 0.503 -0.877 4.723c-3.544 -0.697 -3.981 -3.179 -3.126 -5.886 0.927 -2.936 3.296 -3.395 6.009 -2.393 5.757 2.123 6.846 7.837 2.884 13.702a226.863 226.863 0 0 0 -9.205 14.846c-0.743 1.307 -0.445 3.204 -0.627 4.831l1.401 0.353c0.602 -1.147 1.157 -2.321 1.813 -3.437 2.562 -4.358 4.613 -9.168 7.866 -12.933 4.859 -5.626 6.394 -10.916 2.137 -17.509 -2.729 -4.227 -2.033 -8.498 1.19 -12.404 2.058 -2.493 3.93 -2.547 6.093 -0.134 3.492 3.892 3.987 7.825 1.126 13.195 -2.415 4.531 -3.428 8.907 0.294 13.901l12.761 19.075c1.072 -3.648 -0.169 -8.133 -3.764 -13.064 -2.44 -3.349 -5.059 -6.569 -7.724 -10.583 -0.575 -7.305 2.504 -10.573 9.825 -9.492 0.327 2.255 0.655 4.51 0.366 7.226 -0.657 0.284 -1.313 0.57 -1.558 0.677l-2.353 -4.498c-1.076 0.939 -3.205 2.2 -3.035 2.757 0.552 1.799 1.596 4.161 3.095 4.804 2.829 1.214 5.327 -0.167 7.077 -3.663m10.131 33.296c-0.004 -0.339 -0.006 -0.677 -0.091 -1.674 0.975 -2.396 1.951 -4.792 3.539 -7.121 0.471 0.352 0.942 0.705 1.258 1.688 -0.812 2.078 -1.869 4.107 -2.321 6.262 -0.188 0.9 0.911 2.071 2.198 3.607 -3.017 8.001 -2.214 13.29 2.761 17.029 -0.58 -5.105 -3.802 -10.369 1.215 -15.293 0.714 0.881 0.989 1.46 1.447 1.736 1.182 0.714 2.445 1.294 3.677 1.927 0.082 -1.617 0.705 -4.385 0.148 -4.648 -2.136 -1.007 -4.637 -1.31 -7.032 -1.665 -0.951 -0.141 -1.984 0.261 -3.518 -0.119 3.175 -5.805 7.069 -7.647 13.657 -5.609 -0.019 0.324 -0.037 0.649 -0.387 1.489 0.151 1.095 -0.071 2.843 0.512 3.174 3.422 1.943 6.936 3.804 10.601 5.221 4.938 1.908 10.183 0.91 13.897 -2.18 10.841 -9.016 8.512 -23.718 -4.269 -29.815 -11.544 -5.506 -26.435 -0.981 -35.238 10.913 -6.556 9.704 -8.208 22.945 -3.396 27.173 0.413 -3.695 0.826 -7.389 1.341 -12.096M29.105 165.527s0.021 0.052 -0.16 0.712c2.512 2.829 4.54 6.483 7.643 8.305 5.583 3.277 10.963 6.444 13.706 12.822l1.699 -0.779c-2.029 -7.298 -4.057 -14.596 -6.031 -22.137 -4.456 -7.605 -11.249 -10.527 -20.595 -10.314 1.035 3.774 1.91 6.965 2.884 10.713 0.275 0.209 0.55 0.42 0.851 0.678m59.362 -95.963c-0.157 0.297 -0.314 0.594 -0.892 1.105 -0.167 0.432 -0.333 0.861 -0.913 1.607 -0.1 0.323 -0.201 0.646 -0.758 1.586 -1.462 4.567 -1.035 9.01 2.263 12.48 3.388 3.564 7.371 6.562 11.439 10.111 -0.979 -3.016 -1.703 -6.086 -2.952 -8.925 -2.475 -5.623 -3.326 -11.133 0.488 -17.049 8.038 -6.87 7.216 -14.896 1.57 -21.659 -0.358 1.836 -1.283 3.564 -0.765 4.445 2.628 4.478 -0.17 7.337 -2.732 10.19 -1.934 2.156 -4.218 3.996 -6.267 6.012 0 0 0 -0.087 -0.482 0.097M50.011 87.866c0.313 0.143 0.626 0.285 1.294 0.979 2.796 2.457 3.273 5.579 2.02 8.829 -1.298 3.366 -4.193 4.427 -7.559 3.734 -2.754 -0.568 -3.772 -2.333 -2.909 -4.373l5.472 -0.998c-0.444 -1.211 -0.75 -3.366 -1.358 -3.455 -1.892 -0.278 -3.969 -0.007 -5.824 0.548 -0.723 0.216 -1.218 1.706 -1.525 2.706 -1.473 4.781 3.019 9.705 8.467 9.357 5.35 -0.342 9.583 -5.169 9.376 -10.687 -0.257 -6.822 -5.097 -11.246 -12.734 -11.074 -6.453 0.936 -10.06 5.214 -12.622 11.02 -0.847 -1.321 -1.567 -2.444 -2.403 -4.213 -4.278 -6.733 -11.365 -9.957 -17.093 -7.776 -8.797 3.35 -10.185 13.41 -2.957 21.437 -5.296 5.635 -5.913 11.683 -1.608 15.77 2.781 2.64 5.951 2.597 7.486 0.896 -2.456 -2.499 -5.297 -4.583 -6.872 -7.381 -0.647 -1.148 0.975 -4.341 2.425 -5.656 1.104 -1.002 3.565 -0.506 5.354 -0.67 -1.574 2.049 -3.062 3.273 -3.428 4.774 -0.168 0.692 1.957 2.845 2.87 2.745 4.547 -0.491 4.169 -4.366 4.327 -7.808 1.449 0.412 2.619 0.743 4.242 1.534l4.761 2.566c-3.084 2.745 -6.33 4.754 -8.33 7.629 -2.731 3.925 -2.471 8.559 0.141 12.661 2.517 3.951 6.534 5.015 10.934 4.502 4.386 -0.512 8.078 -5.293 7.707 -9.622 -0.323 -3.779 -4.118 -7.159 -7.896 -7.033 -3.986 0.135 -5.57 2.36 -5.952 8.629 -0.367 0.774 -0.735 1.546 -1.672 1.758 -2.291 -5.384 -1.776 -9.216 1.836 -12.092 3.484 -2.773 7.621 -3.445 11.184 -0.893 5.759 4.126 10.068 9.374 8.905 17.302 -0.269 1.826 -0.04 3.725 -0.04 6.47 5.177 -7.357 3.87 -16.425 -2.567 -23.556 -2.268 -2.512 -4.697 -4.932 -6.603 -7.704 -3.487 -5.073 -3.382 -10.547 -0.232 -15.692 2.949 -4.815 7.506 -6.642 13.129 -5.614 0 0 0.032 -0.019 0.254 0.456m-2.791 -38.065c0.648 0.109 1.296 0.216 2.513 0.644 16.053 6.106 21.765 18.738 21.412 35.196 6.099 -21.78 -9.149 -41.298 -30.985 -40.024 -1.009 0.366 -2.017 0.732 -3.634 0.703 -4.017 2.615 -8.872 4.509 -11.869 7.999 -5.6 6.522 -4.567 15.505 1.286 21.389 5.686 5.715 14.072 6.344 21.148 1.582 0.891 -0.599 1.722 -1.334 2.69 -1.762 4.578 -2.025 4.67 -2.315 1.405 -5.85 5.562 -2.6 8.362 -1.631 16.563 5.989 -0.397 -5.223 -2.483 -9.128 -5.885 -13.148 -4.545 -5.081 -9.977 -8.718 -16.724 -10.154 -6.519 -1.387 -11.136 0.457 -14.394 5.666 -2.528 4.043 -2.099 9.86 1.095 13.392 2.529 2.796 5.54 3.772 9.993 2.167 -2.409 -1.186 -4.125 -1.855 -5.657 -2.82 -3.272 -2.058 -4.32 -5.055 -3.351 -8.802 0.901 -3.487 3.027 -6.269 6.598 -6.001 2.01 0.152 3.845 2.658 5.759 4.102 -1.365 1.286 -2.716 2.587 -4.13 3.816 -0.084 0.072 -0.668 -0.433 -1.057 -0.694l1.801 -3.54 -0.694 -1.121c-1.272 0.532 -3.321 0.781 -3.644 1.662 -0.546 1.491 -0.634 4.352 0.215 4.904 1.827 1.189 4.655 2.21 6.563 1.628 4.355 -1.332 4.227 -5.27 3.144 -9.216l1.085 -0.784c3.586 2.436 7.174 4.87 11.061 7.923 0.093 0.123 0.211 0.236 0.268 0.374a0.732 0.732 0 0 1 0.004 0.35c-1.315 0.112 -2.633 0.304 -3.949 0.287 -6.246 -0.079 -7.062 0.579 -8.685 6.847 -0.206 0.792 -0.779 1.642 -1.431 2.144 -5.124 3.944 -13.577 2.873 -18.063 -2.214 -3.815 -4.326 -3.933 -12.913 0.754 -16.877 3.473 -2.937 8.196 -4.394 12.98 -6.355 0.42 -0.043 0.839 -0.086 1.861 0.074 0.418 -0.031 0.836 -0.063 1.786 0.11 0.556 -0.013 1.113 -0.025 2.164 0.411m80.455 -13.194c-1.722 -2.825 0.366 -2.896 2.061 -2.469 3.946 0.994 4.643 4.368 3.44 7.333 -1.729 4.257 -4.447 8.112 -6.742 12.14 -1.297 -4.119 -0.957 -8.226 -5.626 -8.97 -1.556 -0.249 -3.774 1.002 -4.971 2.254 -0.622 0.653 0.318 2.8 0.553 4.272l1.211 -0.209 1.934 -4.007c5.565 3.66 0.97 8.227 1.491 12.186 8.038 -2.908 15.124 -12.03 15.361 -19.488 0.191 -5.982 -4.629 -10.612 -9.492 -8.717 -1.73 0.675 -3.38 2.678 -4.08 4.462 -0.436 1.112 0.699 3.167 1.663 4.369 0.503 0.627 2.325 0.696 3.234 0.297 0.507 -0.223 0.364 -1.924 -0.037 -3.452m-53.011 1.303c0.912 -4.173 -1.004 -6.549 -4.96 -7.286 -3.759 -0.7 -7.291 2.242 -8.169 6.507 -1.605 7.803 6.921 20.039 14.555 21.394l-0.728 -12.934c-0.695 0.622 -2.057 1.332 -2.582 2.437 -0.646 1.363 -0.596 3.057 -0.941 5.182 -3.867 -4.292 -7.463 -8.044 -7.426 -13.528 0.011 -1.721 1.276 -3.679 2.509 -5.038 0.579 -0.637 2.441 -0.109 3.081 -0.109l-0.533 5.359c1.635 -0.447 3.27 -0.893 5.192 -1.984M62.309 92.092c0.612 0.062 1.508 0.414 1.79 0.139 2.439 -2.39 3.499 -9.348 2.056 -12.695 -1.646 -3.817 -5.047 -5.812 -7.98 -4.121 -1.483 0.854 -2.409 2.89 -3.203 4.572 -0.188 0.398 1.164 1.524 1.809 2.315 1.203 -1.073 2.397 -2.159 3.625 -3.205 0.202 -0.172 0.553 -0.171 0.826 -0.249 3.469 3.357 3.524 3.837 1.08 13.244m-10.211 -55.723 6.311 8.01c0.129 -1.289 0.464 -2.64 0.356 -3.955 -0.317 -3.882 -4.575 -8.22 -7.88 -7.543 -1.509 0.31 -3.058 2.158 -3.799 3.691 -0.331 0.684 1.285 2.309 2.017 3.507 0.776 -1.15 1.55 -2.301 2.994 -3.711m89.368 4.463 4.121 -5.318 1.194 4.533 1.408 0.539c0.745 -1.536 2.484 -3.951 2.049 -4.442 -1.268 -1.432 -3.549 -3.103 -5.173 -2.87 -4.935 0.71 -7.2 6.01 -5.115 11.364 0.473 -1.215 0.851 -2.185 1.516 -3.808m-111.654 141.176c0.285 -0.055 0.824 -0.139 0.821 -0.164 -0.428 -3.988 -6.321 -7.365 -11.389 -5.484 3.791 2.075 6.904 3.781 10.568 5.648M100.397 30.243c1.524 -3.446 0.903 -6.346 -2.878 -9.609 -0.489 3.087 -1.294 5.409 -1.011 7.589 0.137 1.046 2.336 1.824 3.889 2.02m35.848 81.28c0.391 3.246 2.706 2.072 4.294 1.593 1.007 -0.303 2.477 -1.655 2.4 -2.4 -0.13 -1.283 -1.053 -3.177 -2.09 -3.543 -2.943 -1.035 -4.55 0.571 -4.604 4.349m-103.699 66.999 -0.421 -2.623 -1.226 0.304c0.312 0.719 0.623 1.44 1.647 2.319" stroke-width="0.9274185022026431"/><path fill="#58290E" opacity="1.000000" stroke="none" d="M54.812 172.503c-0.161 -0.533 -0.324 -1.066 -0.376 -2.156 -0.06 -0.883 -0.228 -1.212 -0.397 -1.539 -0.226 -0.965 -0.45 -1.932 -0.34 -3.289 1.013 -0.533 1.69 -0.677 2.447 -0.837 -0.621 -1.209 -1.771 -2.447 -1.502 -3.092 1.292 -3.09 -1.137 -1.712 -2.165 -2.006 0 0 -0.055 -0.157 0.059 -0.517 -0.051 -0.705 -0.215 -1.048 -0.379 -1.391 -0.559 -4.141 -1.95 -8.408 2.314 -12.088 0.744 -0.419 0.958 -0.657 1.171 -0.894 0.084 -0.292 0.257 -0.515 0.842 -0.545 0.517 0.318 0.746 0.447 1.111 0.756 0.343 0.703 0.588 1.164 0.933 1.832 0.293 0.462 0.542 0.634 1.133 0.743 0.473 0.042 0.662 0.059 0.727 0.295 -0.432 0.352 -0.736 0.484 -1.341 0.647 -0.711 0.63 -1.126 1.23 -1.564 2.07 -0.084 0.389 -0.141 0.538 -0.33 0.776 -0.037 0.331 0.055 0.575 0.307 1.101 3.214 1.989 6.267 3.695 9.541 5.607 0.611 0.225 1 0.244 1.74 0.263 1.462 0.298 2.575 0.597 3.826 1.015 0.139 0.119 0.488 0.226 0.488 0.226s0.365 -0.028 0.571 -0.062 0.575 0.164 0.833 0.416c1.217 0.301 2.173 0.352 3.41 0.292 0.818 0.11 1.356 0.327 1.913 0.662 0.069 0.275 0.163 0.398 0.417 0.907 0.062 3.916 0.009 7.411 -0.102 11.057 0.18 0.317 0.418 0.482 1.076 0.691 0.941 -3.046 1.464 -6.136 2.305 -9.259 2.954 -0.645 5.59 -1.259 8.301 -1.505 3.586 3.681 3.021 7.988 2.989 12.18 -0.006 0.894 0.201 1.789 0.308 2.684a17.773 17.773 0 0 0 2.074 -0.626c3.049 -3.308 2.871 -5.571 -0.365 -7.528 -0.026 -0.693 0.027 -1.09 0.436 -1.518 0.904 -1.432 1.611 -2.797 1.97 -4.248 0.801 -3.24 0.664 -6.99 2.306 -9.68 2.493 -4.081 0.811 -4.506 -2.562 -4.95 2.5 -0.769 4.947 -1.148 6.608 -1.405a631.454 631.454 0 0 0 3.086 6.677c0.338 0.424 0.608 0.538 0.874 0.556 -0.054 0.025 0.031 -0.06 0.016 0.134 0.031 0.469 0.177 0.675 0.489 1.219 0.025 5.107 -0.022 9.808 -0.184 14.591 -0.254 0.381 -0.177 0.609 0.188 1.137 0.014 1.361 -0.045 2.355 -0.331 3.397 -0.076 0.655 0.078 1.262 0.317 2.254 0.291 1.358 0.493 2.329 0.696 3.302 1.417 -3.093 1.178 -7.364 2.998 -8.597 2.33 -1.582 6.32 -0.716 9.642 -0.907 0.139 2.19 0.079 3.757 0.441 5.219 0.09 0.363 1.544 0.388 2.727 0.485 0.803 -3.291 1.251 -6.502 1.756 -10.13l3.148 4.537c0.552 -1.618 -0.395 -2.9 -0.097 -3.741 0.667 -1.877 1.773 -4.861 3.02 -5.032 4.012 -0.545 7.191 4.341 5.583 8.121 -1.289 3.03 -0.546 4.419 2.732 4.826 -1.077 3.857 -2.159 7.36 -3.58 10.806 -1.477 -0.988 -2.619 -1.918 -3.731 -3.142 -0.373 -0.681 -0.774 -1.071 -1.174 -1.459a688.954 688.954 0 0 0 -2.546 3.523c-0.005 0.022 0.037 0.041 -0.271 0.028 -0.921 0.05 -1.533 0.112 -2.462 0.164 -0.816 0.299 -1.317 0.606 -1.812 0.894 0.004 -0.022 0.041 0.009 -0.342 0 -6.325 0.282 -12.267 0.572 -18.414 0.604 -5.88 -2.481 -11.424 -5.253 -17.295 -6.662 -2.401 -0.575 -5.894 -3.624 -8.777 0.371 -0.711 0.063 -1.119 0.093 -1.784 -0.149 -3.289 -0.694 -6.32 -1.115 -8.026 -1.354 -3.007 1.08 -5.104 1.762 -7.117 2.633 -0.308 0.134 -0.234 1.152 -0.501 2.066 0.547 3.493 1.255 6.678 2.092 10.158 4.116 7.608 9.265 13.871 16.542 18.511 0.414 0.549 0.716 0.896 1.066 1.54 0.303 0.834 0.559 1.373 0.654 2.138 -0.681 0.39 -1.202 0.552 -2.058 0.703 -1.007 -0.014 -1.679 -0.017 -2.35 -0.019 -15.093 -8.786 -21.579 -23.061 -25.043 -39.263 -0.258 -1.204 -0.542 -2.402 -0.672 -4.061 0.016 -0.692 -0.109 -0.929 -0.232 -1.167m50.523 -22.708s-0.096 0.055 0 0m-32.452 11.13s-0.101 0.06 0 0" stroke-width="0.9274185022026431"/><path fill="#B75D1B" opacity="1.000000" stroke="none" d="M64.338 116.658c8.367 4.875 10.181 4.114 13.736 -5.791 0.62 0.413 0.911 0.989 1.252 1.67l2.134 -3.052c0.786 1.115 1.516 2.278 2.368 3.34 3.907 4.867 8.985 4.477 12.132 -0.916 0.612 -1.048 1.161 -2.131 2.164 -3.126 2.214 1.192 4.002 2.31 5.79 3.429 0.228 3.087 0.306 6.299 4.09 7.362 3.027 0.85 9.144 -1.585 10.527 -4.297 0.381 -0.743 -0.202 -1.92 -0.043 -2.847 0.281 -1.631 0.604 -3.32 1.349 -4.758 0.175 -0.338 2.978 0.03 3.068 0.418 0.368 1.612 0.316 3.374 0.105 5.041 -0.122 0.977 -0.833 1.882 -1.367 3.307 -0.089 0.73 -0.024 0.95 0.107 1.152 0.465 1.042 0.931 2.085 1.512 3.798 1.687 6.399 6.955 4.315 10.611 5.639 -0.326 1.354 -0.653 2.71 -1.344 4.517 -0.391 0.765 -0.417 1.077 -0.442 1.389 0 0 0.053 0.052 -0.206 -0.023 -0.542 -0.033 -0.823 0.007 -1.104 0.047l1.308 0.527c-1.658 0.326 -3.478 1.272 -4.948 0.887 -20.416 -5.359 -40.712 -4.303 -61.398 0.998 -0.74 -2.723 -1.452 -5.338 -1.959 -8.661 0.189 -2.386 0.118 -4.067 0.177 -5.745 0.052 -1.44 0.251 -2.873 0.385 -4.309m38.356 -1.491 -0.308 -0.429c0.021 0.199 0.041 0.397 0.308 0.429" stroke-width="0.9274185022026431"/><path fill="#B9622D" opacity="1.000000" stroke="none" d="m173.433 107.528 -5.757 3.216c2.879 2.246 5.827 3.979 8.025 6.393 3.201 3.517 3.409 9.678 0.95 13.43 -2.65 4.046 -6.548 5.521 -11.215 4.859 -4.638 -0.659 -8.197 -5.516 -7.597 -10.092 0.556 -4.259 3.869 -6.965 8.07 -6.523 3.487 0.367 5.412 2.56 5.277 5.858 -0.062 1.487 -1.514 3.13 -2.748 4.242 -0.442 0.398 -2.103 -0.556 -3.207 -0.894l1.823 -4.456c-2.518 -2.135 -4.699 -1.679 -5.435 1.721 -0.767 3.537 0.623 6.11 4.127 7.194 3.233 0.999 7.469 -1.408 8.38 -4.899 0.937 -3.586 0.619 -7.123 -2.25 -9.89 -2.923 -2.822 -6.371 -3.611 -10.252 -2.221 -6.303 2.259 -10.628 9.514 -10.198 17.09 0.119 2.095 0.212 4.192 0.317 6.287l-1.164 0.386c-0.686 -1.655 -1.696 -3.252 -2 -4.974 -1.138 -6.461 0.554 -12.223 4.809 -17.235 2.594 -3.055 5.467 -5.931 7.658 -9.254 3.055 -4.633 2.884 -9.668 0.161 -14.487 -2.222 -3.934 -5.723 -6.009 -10.244 -6.072 -4.292 -0.057 -7.365 3.404 -7.216 7.883 0.134 4.019 2.912 6.739 6.855 6.501 3.038 -0.184 5.105 -1.358 4.019 -4.943 -0.343 -0.18 -0.612 -0.448 -0.858 -0.429 -1.357 0.111 -2.708 0.294 -4.061 0.452 -0.053 -1.02 -0.542 -2.582 -0.075 -2.959 1.201 -0.966 2.838 -1.979 4.276 -1.946 3.322 0.077 5.401 4.21 4.234 7.767 -1.809 5.514 -9.015 7.52 -13.774 3.835 -4.078 -3.157 -5.542 -9.41 -3.2 -13.665 3.221 -5.852 9.094 -8.417 14.818 -5.352 3.844 2.058 6.822 5.736 10.165 8.671 2.523 -5.277 6.357 -10.987 14.359 -11.198 4.668 -0.123 8.271 2.099 10.581 6.921 -0.559 1.774 -1.131 2.886 -1.81 3.678 -1.54 -4.885 -4.845 -7.042 -9.436 -7.02 -4.465 0.022 -7.538 2.649 -9.154 6.57 -2.216 5.381 -3.999 10.941 -6.05 16.652 3.257 -1.394 6.301 -2.696 9.608 -3.956 0.276 0.804 0.287 1.567 0.298 2.329 0 0 -0.056 -0.129 -0.232 -0.118 -0.41 0.223 -0.644 0.436 -0.878 0.649" stroke-width="0.9274185022026431"/><path fill="#52260C" opacity="1.000000" stroke="none" d="M135.307 183.593c1.141 0.931 2.281 1.861 3.732 3.181 -0.366 1.942 -1.04 3.499 -1.812 5.321 0.644 3.657 2.578 2.389 4.358 1.358 1.803 -1.043 3.428 -2.489 5.335 -3.24 2.58 -1.015 2.781 -2.424 1.723 -4.751 0.581 -0.41 0.947 -0.594 1.463 -0.433 1.615 0.292 3.709 0.843 4.442 0.084 3.66 -3.804 7.01 -7.915 10.321 -12.038 0.314 -0.39 -0.398 -1.602 -0.628 -2.697 0.29 -0.707 0.571 -1.15 1.078 -1.589 0.226 0.003 0.678 0.008 0.765 0.16 0.343 0.049 0.6 -0.053 1.088 -0.158 0.23 -0.002 0.692 -0.004 0.728 0.333 1.041 1.379 2.047 2.422 3.052 3.465 -1.446 2.665 -2.892 5.328 -4.994 8.13 -1.582 1.261 -2.508 2.38 -3.434 3.502 0.177 0.566 0.471 1.635 0.51 1.626 1.705 -0.402 3.388 -0.901 5.395 -1.056a98.273 98.273 0 0 1 2.904 3.659c0.053 0.111 0.18 0.326 0.18 0.326 -2.182 0.096 -4.365 0.194 -7.108 -0.009 -1.664 -0.375 -2.769 -0.453 -4.173 -0.489 -0.747 0.612 -1.196 1.187 -1.647 1.759 0 0 -0.303 0.229 -0.788 0.179 -0.984 0.217 -1.482 0.482 -1.981 0.749 0 0 -0.227 0.244 -0.65 0.251 -0.684 0.218 -0.944 0.432 -1.205 0.644 -0.432 0.446 -0.862 0.892 -1.655 1.698 -0.93 1.247 -1.5 2.134 -2.402 3.144 -1.929 1.275 -3.524 2.429 -5.409 3.501 -0.773 1.21 -1.255 2.502 -2.055 3.851 -1.903 1.974 -3.488 3.888 -5.254 6.001 -0.688 0.365 -1.195 0.533 -1.734 0.35 -0.414 -1.144 -0.795 -1.935 -1.218 -3.059 -1.516 -0.496 -3.512 -1.358 -4.374 -0.71 -4.81 3.61 -9.346 7.587 -13.935 11.762 0.333 1.579 0.624 2.832 0.916 4.087 -3.698 0.371 -7.396 0.742 -11.874 1.098 -3.052 -0.291 -5.342 -0.897 -7.587 -0.763 -3.453 0.204 -6.876 0.918 -10.311 1.414 -0.441 -0.013 -0.883 -0.024 -1.504 -0.482a428.636 428.636 0 0 1 -2.113 -6.735 36.591 36.591 0 0 0 2.099 -0.711 19.864 19.864 0 0 1 3.512 -0.256c-0.028 0.022 0 -0.045 0.195 0.247 6.285 2.337 12.374 4.391 18.313 -0.134 -0.019 -0.062 -0.066 -0.182 0.274 -0.177 0.636 -0.068 0.95 -0.096 1.223 -0.218 6.386 -2.871 11.346 -7.254 16.079 -12.528 3.828 -4.268 7.172 -8.11 7.821 -14.124 0.965 -1.961 1.655 -3.745 2.345 -5.527m-23.983 35.481 0.833 1.589 1.384 -0.773c-0.538 -0.324 -1.078 -0.649 -2.216 -0.816m39.084 -26.852 -0.432 0.313c0.2 -0.021 0.398 -0.042 0.432 -0.313m3.928 -2.581s0.102 -0.061 0 0" stroke-width="0.9274185022026431"/><path fill="#B8602D" opacity="1.000000" stroke="none" d="M131.666 76.032c-0.513 -1.048 -1.613 -2.218 -1.425 -3.119 0.452 -2.156 1.509 -4.183 2.646 -6.771 6.117 -8.242 13.241 -13.911 23.37 -14.045 8.342 -0.111 14.092 8.322 11.393 16.192 -1.623 4.735 -6.624 7.068 -11.639 4.99 1.922 -0.921 3.573 -1.621 5.138 -2.481 3.488 -1.916 4.515 -5.136 3.657 -8.699 -0.915 -3.793 -3.694 -6.218 -7.638 -6.253 -1.501 -0.013 -3.459 1.342 -4.37 2.655 -0.596 0.858 -0.109 3.095 0.677 4.1 0.719 0.921 2.493 1.018 4.092 1.581l-1.261 -5.064c0.834 -0.077 2.17 -0.508 2.411 -0.167 0.915 1.296 2.257 3.033 1.963 4.246 -0.355 1.464 -1.994 3.187 -3.461 3.699 -3.705 1.294 -7.169 -1.179 -7.768 -5.11 -0.204 -1.339 -0.193 -2.712 -0.37 -5.433l-11.816 8.448c1.401 1.003 2.263 0.966 3.126 0.92 7.132 -0.387 7.749 0.067 9.816 7.054 0.158 0.532 0.504 1.076 0.908 1.458 6.125 5.795 18.335 2.442 20.673 -5.657 3.109 -10.773 -6.638 -20.616 -18.842 -19.227 -7.25 0.826 -12.78 4.938 -18.823 8.744 -1.503 -0.047 -2.612 0.094 -3.719 0.234 8.309 -11.54 23.201 -16.065 34.744 -10.559 12.781 6.098 15.11 20.799 4.269 29.815 -3.716 3.089 -8.958 4.087 -13.898 2.18 -3.664 -1.417 -7.178 -3.277 -10.6 -5.221 -0.583 -0.331 -0.362 -2.079 -0.007 -3.45 0.367 -0.907 0.229 -1.537 0.093 -2.165 -6.798 -1.085 -10.692 0.758 -13.591 6.844 0.278 0.281 0.251 0.264 0.251 0.264" stroke-width="0.9274185022026431"/><path fill="#5F3726" opacity="1.000000" stroke="none" d="M83.11 217.011c0.98 2.107 1.624 4.203 2.164 6.57 -8.046 -1.272 -15.981 -2.853 -23.937 -4.314 -1.021 -0.187 -2.411 -0.106 -3.195 0.456 -3.389 2.43 -6.375 2.02 -8.925 -1.06 -2.19 -2.647 -1.688 -7.205 1.119 -9.63 1.558 -1.344 3.555 -2.18 5.564 -4.394l-13.35 -2.471c3.237 8.894 2.596 10.609 -4.192 12.468a39.727 39.727 0 0 1 -1.545 -1.848l-0.649 2.083c-5.662 -1.547 -7.357 -3.793 -7.298 -10.327 0.838 -0.376 1.533 -0.346 1.855 -0.677 1.048 -1.08 1.96 -2.293 2.788 -3.102 -0.393 2.58 -1.534 5.29 -0.658 6.904 0.893 1.644 3.696 2.482 5.828 3.077 0.616 0.171 1.805 -1.712 2.522 -2.439l-4.984 -3.082c1.123 -1.351 1.994 -3.182 3.431 -3.932 1.984 -1.038 4.38 -1.641 6.625 -1.72 2.166 -0.075 4.365 0.753 6.548 1.186l0.425 -1.45c-2.908 -1.005 -5.818 -2.009 -8.426 -3.198 2.3 -0.828 5.558 0.568 5.516 -3.395 3.58 3.507 7.141 7.033 10.741 10.518 4.597 4.452 9.09 9.029 13.93 13.201 1.251 1.08 3.628 0.852 5.621 0.891 0.805 -0.332 1.476 -0.329 2.484 -0.316m-30.939 -4.513c-0.539 4.386 -0.522 4.411 3.589 4.793l-0.683 -5.175 13.867 6.444 0.642 -1.246c-2.482 -1.998 -4.846 -4.17 -7.477 -5.948 -3.181 -2.149 -6.52 -2.786 -9.938 1.131m-10.051 -6.163s0.097 -0.057 0 0" stroke-width="0.9274185022026431"/><path fill="#B9622D" opacity="1.000000" stroke="none" d="m29.821 90.883 2.29 3.568c2.559 -5.806 6.169 -10.084 12.989 -10.626a134.863 134.863 0 0 0 4.655 3.625c-5.619 -1.066 -10.176 0.76 -13.126 5.575 -3.15 5.146 -3.254 10.619 0.232 15.692 1.906 2.771 4.335 5.192 6.603 7.704 6.437 7.131 7.744 16.199 2.567 23.556 0 -2.745 -0.228 -4.645 0.04 -6.47 1.163 -7.93 -3.145 -13.176 -8.905 -17.302 -3.561 -2.551 -7.7 -1.88 -11.184 0.893 -3.612 2.876 -4.127 6.707 -1.405 12.636 2.849 2.969 5.915 4.185 8.654 2.005 1.577 -1.256 2.269 -4.069 2.563 -6.287 0.132 -0.986 -1.508 -2.63 -2.712 -3.216 -0.752 -0.366 -2.194 0.685 -2.704 0.871l1.575 5.123c-1.712 -0.306 -3.429 -0.589 -5.132 -0.939 -0.248 -0.051 -0.43 -0.417 -0.642 -0.638 0.019 -5.492 1.602 -7.718 5.588 -7.851 3.778 -0.126 7.573 3.253 7.896 7.033 0.371 4.329 -3.321 9.11 -7.707 9.622 -4.399 0.513 -8.417 -0.551 -10.934 -4.502 -2.613 -4.102 -2.871 -8.736 -0.141 -12.661 2 -2.875 5.245 -4.883 8.33 -7.629 -1.209 -0.651 -2.986 -1.608 -4.665 -2.937 0.982 -0.669 1.867 -0.967 3.079 -1.181 1.465 0.416 2.601 0.75 4.383 1.271 -1.726 -5.713 -3.167 -10.484 -4.414 -15.592 0.872 -0.672 1.548 -1.007 2.224 -1.343m11.37 -4.185s0.101 -0.06 0 0" stroke-width="0.9274185022026431"/><path fill="#5D2D11" opacity="1.000000" stroke="none" d="M165.998 168.8s-0.453 -0.005 -0.708 -0.308c-0.013 -1.056 0.228 -1.81 0.654 -2.616 0.267 -0.151 0.424 -0.324 0.415 -0.336 -0.169 -0.176 -0.362 -0.33 -0.68 -0.695 -0.117 -0.675 -0.102 -1.146 0.156 -1.688 0.529 -0.645 0.811 -1.215 1.057 -2.129 -1.512 -4.5 -1.512 -4.5 -4.173 -3.12 -7.237 -3.491 -12.421 -2.204 -15.682 4.417 -1.998 4.057 -2.967 8.621 -4.398 12.958 -3.271 -0.053 -4.016 -1.442 -2.727 -4.472 1.608 -3.78 -1.57 -8.666 -5.582 -8.121 -1.247 0.169 -2.353 3.155 -3.02 5.032 -0.298 0.841 0.649 2.122 0.097 3.741l-3.148 -4.537c-0.505 3.629 -0.953 6.838 -1.831 9.72 -0.46 -2.164 -0.507 -3.999 -0.519 -5.834 -0.016 -2.762 -0.383 -4.407 -3.967 -2.897 -2.317 0.975 -5.166 0.687 -7.759 0.965 -0.839 -7.439 -0.839 -7.439 5.453 -7.816 2.656 2.019 4.36 1.1 5.892 -1.491 2.037 -0.51 3.756 -0.903 5.784 -1.263 0.642 -0.19 0.974 -0.415 1.536 -0.865 2.518 -1.632 4.809 -3.04 7.347 -4.601 0.103 -0.965 -0.04 -1.774 -0.17 -2.593 0.013 -0.007 -0.004 0.017 0.006 -0.22 0.007 -0.394 0.004 -0.552 0.004 -0.713 0.004 -0.004 0.011 -0.013 0.322 -0.146 1.863 -0.344 3.414 -0.554 4.967 -0.765l0.996 3.134c2.493 -0.829 4.708 -1.565 7.345 -1.919 1.49 0.8 2.526 1.332 3.627 1.614 6.456 1.656 12.605 3.557 12.933 11.92 0.037 0.963 0.872 1.894 1.34 3.206 0.031 1.092 0.06 1.821 0.087 2.551 0 0 -0.045 -0.09 -0.384 -0.088 -1.361 -0.009 -2.384 -0.02 -3.406 -0.03l-0.927 0.003 -0.939 0.006m-7.775 -14.741h-3.364l0.021 0.837c1.245 -0.144 2.491 -0.29 3.343 -0.837" stroke-width="0.9274185022026431"/><path fill="#F9F3F0" opacity="1.000000" stroke="none" d="M134.522 58.279c5.648 -3.996 11.177 -8.107 18.428 -8.933 12.205 -1.388 21.952 8.455 18.842 19.226 -2.337 8.1 -14.547 11.453 -20.672 5.658a3.45 3.45 0 0 1 -0.908 -1.458c-2.068 -6.987 -2.685 -7.44 -9.817 -7.054 -0.862 0.046 -1.725 0.084 -3.126 -0.92l11.816 -8.448c0.177 2.721 0.167 4.094 0.371 5.433 0.599 3.931 4.062 6.404 7.767 5.11 1.467 -0.512 3.106 -2.235 3.461 -3.699 0.294 -1.214 -1.049 -2.949 -1.963 -4.246 -0.241 -0.341 -1.577 0.09 -2.411 0.167l1.261 5.064c-1.598 -0.561 -3.372 -0.659 -4.092 -1.58 -0.786 -1.006 -1.273 -3.241 -0.677 -4.099 0.911 -1.314 2.868 -2.669 4.369 -2.656 3.944 0.034 6.723 2.46 7.638 6.253 0.858 3.563 -0.168 6.783 -3.657 8.699 -1.565 0.859 -3.216 1.56 -5.138 2.482 5.015 2.077 10.016 -0.256 11.639 -4.99 2.698 -7.87 -3.052 -16.302 -11.393 -16.192 -10.129 0.134 -17.253 5.803 -23.293 13.73 -0.717 -0.158 -1.188 -0.511 -1.902 -1.22 0.99 -2.346 2.224 -4.338 3.457 -6.328" stroke-width="0.9274185022026431"/><path fill="#B35C2C" opacity="1.000000" stroke="none" d="M113.766 32.613c-6.952 -0.535 -10.031 2.733 -9.734 10.591 -0.577 1.514 -0.875 2.475 -1.174 3.435 -3.543 -4.412 -2.532 -8.787 -0.116 -13.319 2.861 -5.368 2.365 -9.302 -1.126 -13.195 -2.164 -2.413 -4.034 -2.361 -6.093 0.134 -3.224 3.906 -3.918 8.178 -1.19 12.404 4.257 6.594 2.722 11.884 -2.137 17.509 -3.253 3.767 -5.304 8.576 -7.866 12.933 -0.655 1.115 -1.212 2.291 -1.813 3.437l-1.401 -0.353c0.181 -1.627 -0.116 -3.524 0.627 -4.832a226.863 226.863 0 0 1 9.206 -14.845c3.96 -5.864 2.872 -11.577 -2.884 -13.702 -2.715 -1.002 -5.083 -0.543 -6.01 2.393 -0.856 2.707 -0.418 5.188 3.126 5.886l0.877 -4.723 1.255 -0.503c1.002 1.292 2.712 2.535 2.804 3.889 0.09 1.315 -1.196 3.481 -2.39 3.94 -1.617 0.621 -4.193 0.65 -5.525 -0.271 -3.323 -2.297 -4.482 -5.933 -3.134 -9.83 1.256 -3.63 4.011 -5.352 7.982 -4.705 0.562 0.092 1.134 0.129 0.534 0.062 2.62 -4.564 4.518 -8.712 7.197 -12.273 2.181 -2.9 5.615 -3.116 7.861 0.033 2.58 3.62 4.49 7.718 6.725 11.667 2.051 0.683 4.818 1.603 7.38 2.866 -1.13 0.686 -2.054 1.028 -2.978 1.368" stroke-width="0.9274185022026431"/><path fill="#B75F2C" opacity="1.000000" stroke="none" d="M29.763 90.56c-0.619 0.659 -1.295 0.993 -2.365 1.398 -2.471 -1.91 -4.274 -4.381 -6.698 -5.748 -3.335 -1.882 -6.941 -1.203 -9.83 1.445 -2.714 2.486 -4.185 5.948 -2.413 9.139 1.195 2.154 4.144 4.251 6.524 4.53 1.77 0.208 4.303 -2.238 5.659 -4.111 0.609 -0.842 -0.362 -3.73 -1.474 -4.647 -0.982 -0.809 -3.158 -0.169 -5.145 -0.169l4.461 3.112c-0.647 0.899 -1.447 2.632 -1.915 2.548 -1.641 -0.3 -3.592 -0.865 -4.6 -2.037 -0.718 -0.834 -0.561 -3.012 -0.011 -4.238 1.762 -3.923 7.385 -4.74 9.926 -1.05 2.377 3.453 3.578 7.714 5.296 11.62l-1.159 0.628 -3.619 -2.545 -2.012 2.849 6.916 3.177c-0.885 0.298 -1.771 0.596 -2.978 1.036 -1.493 -0.189 -2.664 -0.522 -4.112 -0.933 -0.158 3.444 0.218 7.317 -4.327 7.808 -0.913 0.099 -3.038 -2.053 -2.87 -2.745 0.366 -1.499 1.853 -2.724 3.428 -4.774 -1.789 0.164 -4.25 -0.33 -5.354 0.67 -1.45 1.315 -3.073 4.507 -2.426 5.657 1.577 2.797 4.417 4.882 6.872 7.381 -1.535 1.7 -4.703 1.744 -7.484 -0.896 -4.306 -4.087 -3.689 -10.135 1.607 -15.77 -7.228 -8.028 -5.841 -18.087 2.957 -21.437 5.728 -2.181 12.815 1.043 17.151 8.099" stroke-width="0.9274185022026431"/><path fill="#B65F2F" opacity="1.000000" stroke="none" d="M62.129 63.086c3.141 3.454 5.226 7.359 5.622 12.582 -8.202 -7.62 -11.001 -8.589 -16.564 -5.989 3.265 3.536 3.174 3.824 -1.404 5.851 -0.967 0.428 -1.799 1.163 -2.69 1.762 -7.077 4.76 -15.463 4.134 -21.148 -1.582 -5.852 -5.884 -6.887 -14.866 -1.286 -21.389 2.997 -3.49 7.852 -5.384 12.159 -7.64 0.29 0.36 0.317 0.683 0.511 0.914 1.284 0.64 2.373 1.049 3.463 1.458 -4.166 2.116 -8.889 3.574 -12.362 6.51 -4.687 3.963 -4.569 12.55 -0.754 16.877 4.485 5.088 12.94 6.159 18.063 2.214 0.651 -0.501 1.225 -1.352 1.431 -2.144 1.623 -6.267 2.439 -6.926 8.685 -6.847 1.315 0.017 2.633 -0.176 3.949 -0.287a0.732 0.732 0 0 0 -0.004 -0.35c-0.056 -0.137 -0.177 -0.251 -0.095 -0.695 0.924 -0.628 1.675 -0.937 2.425 -1.244" stroke-width="0.9274185022026431"/><path fill="#5D2D11" opacity="1.000000" stroke="none" d="M58.427 146.531c-0.245 -0.462 -0.489 -0.923 -0.853 -1.917 -0.139 -0.727 -0.159 -0.921 -0.179 -1.114 0.396 -0.269 0.792 -0.536 1.736 -0.677 1.955 -0.617 3.363 -1.359 4.77 -2.1 1.659 -0.554 3.318 -1.107 5.418 -1.49 0.684 -0.001 0.925 -0.174 1.169 -0.346 1.444 -0.332 2.888 -0.665 4.924 -0.924 0.907 -0.094 1.221 -0.262 1.536 -0.43 0.417 -0.1 0.834 -0.201 1.663 -0.096 0.655 0.083 0.901 -0.039 1.147 -0.16 1.623 -0.28 3.248 -0.56 5.319 -0.659 0.686 0.074 0.924 -0.033 1.164 -0.141 12.786 -0.373 25.563 -0.574 38.817 2.005 0.948 0.347 1.309 0.384 1.671 0.422 1.469 0.292 2.937 0.582 4.728 1.333 0.912 0.855 1.502 1.252 2.096 1.88 0.004 0.232 0.017 0.695 0.013 1.007 -0.009 0.727 -0.013 1.141 -0.209 1.771 -0.321 0.36 -0.448 0.504 -0.654 0.577a2.405 2.405 0 0 0 -0.811 -0.491c-0.722 -0.17 -1.02 -0.198 -1.558 -0.214 -0.684 -0.158 -1.127 -0.326 -1.706 -0.856 -1.672 -0.561 -3.207 -0.761 -5.048 -0.927 -0.905 -0.098 -1.504 -0.23 -2.304 -0.562 -0.752 -0.22 -1.301 -0.239 -1.786 -0.3 0.065 -0.04 -0.013 0.091 -0.094 -0.191 -0.899 -0.215 -1.718 -0.148 -2.847 -0.034 -0.719 -0.039 -1.128 -0.126 -1.63 -0.543 -1.89 -0.65 -3.686 -0.97 -5.786 -1.295 -1.023 0.249 -1.746 0.504 -2.861 0.822 -1.988 0.021 -3.583 -0.022 -5.272 -0.408 -2.943 -1.556 -5.783 -2.707 -8.494 0.423 -0.39 0.023 -0.546 -0.016 -0.94 -0.279 -1.629 0.009 -3.018 0.245 -4.689 0.63 -1.333 0.23 -2.386 0.308 -3.643 0.187 -1.295 0.039 -2.385 0.278 -3.668 0.648 -0.49 0.076 -0.784 0.021 -1.442 -0.079 -1.239 0.211 -2.115 0.467 -3.22 0.831 -0.563 0.114 -0.899 0.119 -1.581 0.084 -1.176 0.235 -2.004 0.512 -2.998 0.885 -0.165 0.097 -0.546 0.037 -0.835 0.015 -0.784 0.23 -1.279 0.483 -1.96 0.844 -0.188 0.107 -0.62 0.071 -0.905 0.061 -0.755 0.262 -1.224 0.536 -1.927 0.982 -0.953 0.412 -1.677 0.652 -2.616 0.928 -0.504 0.151 -0.714 0.345 -0.999 0.765 -0.151 0.144 -0.566 0.162 -0.566 0.162 -0.189 -0.017 -0.378 -0.033 -0.96 -0.276 -0.581 -0.479 -0.826 -0.653 -1.127 -0.749" stroke-width="0.9274185022026431"/><path fill="#B55E2D" opacity="1.000000" stroke="none" d="M61.997 62.802c-0.62 0.59 -1.371 0.898 -2.444 1.218 -3.91 -2.423 -7.497 -4.858 -11.084 -7.293l-1.085 0.784c1.083 3.946 1.212 7.884 -3.144 9.216 -1.908 0.582 -4.736 -0.439 -6.563 -1.628 -0.849 -0.552 -0.76 -3.413 -0.214 -4.904 0.323 -0.881 2.371 -1.129 3.644 -1.662l0.693 1.121 -1.8 3.54c0.388 0.26 0.973 0.766 1.056 0.694 1.413 -1.229 2.764 -2.531 4.13 -3.816 -1.914 -1.445 -3.749 -3.951 -5.759 -4.102 -3.57 -0.268 -5.697 2.513 -6.598 6.001 -0.969 3.749 0.078 6.742 3.351 8.802 1.532 0.965 3.249 1.635 5.657 2.821 -4.455 1.605 -7.466 0.628 -9.992 -2.168 -3.194 -3.532 -3.624 -9.348 -1.097 -13.391 3.258 -5.209 7.875 -7.054 14.394 -5.666 6.748 1.435 12.181 5.073 16.856 10.437" stroke-width="0.9274185022026431"/><path fill="#5B3626" opacity="1.000000" stroke="none" d="M137.363 209.86c1.585 -1.915 3.17 -3.831 5.362 -5.776 0.8 -0.018 0.992 -0.003 1.186 0.011l-2.48 1.834c1.373 0.615 2.597 1.062 3.725 1.685 3.938 2.173 5.527 6.708 3.624 10.167 -2.019 3.668 -5.169 4.213 -9.769 1.742 -0.623 -0.336 -1.412 -0.742 -2.04 -0.63 -6.461 1.151 -12.905 2.402 -19.744 3.61 -0.682 -1.268 -0.973 -2.523 -0.926 -4.112 2.992 -1.301 5.889 -1.87 8.242 -3.323 3.448 -2.131 6.506 -4.892 9.73 -7.385 0.382 0.791 0.762 1.583 1.016 2.986 -2.416 2.409 -4.705 4.205 -6.994 6.001l0.624 1.201 13.037 -5.331 -0.636 4.625 1.106 0.949c1.088 -1.055 3.159 -2.229 3.05 -3.137 -0.206 -1.694 -1.327 -3.804 -2.729 -4.672 -1.363 -0.844 -3.556 -0.349 -5.384 -0.442" stroke-width="0.9274185022026431"/><path fill="#613927" opacity="1.000000" stroke="none" d="M144.288 204.077a11.5 11.5 0 0 1 -1.244 -0.051c0.193 -1.318 0.677 -2.61 1.815 -3.856 4.44 0.243 8.308 0.039 11.969 0.814 1.674 0.354 2.939 2.64 4.389 4.048l-5.241 3.587c1.229 0.801 2.655 2.446 3.635 2.214 1.836 -0.436 4.125 -1.573 4.954 -3.107 1.936 -3.58 -0.711 -8.751 -5.282 -10.19 -2.836 -0.892 -6.021 -0.675 -9.049 -0.956 0.571 -0.888 1.141 -1.774 1.995 -2.802 0.876 -0.169 1.469 -0.199 2.498 0.118 1.261 0.23 2.089 0.115 2.916 0 8.697 1.51 13.422 8.623 10.451 15.734 -1.579 3.777 -5.351 5.98 -9.187 5.366 -5.745 -0.918 -7.216 -4.579 -4.114 -12.623 -3.805 0.632 -6.967 1.159 -10.504 1.702" stroke-width="0.9274185022026431"/><path fill="#B65F2C" opacity="1.000000" stroke="none" d="M174.888 106.946c-0.354 -0.711 -0.366 -1.474 -0.348 -2.497 4.147 -1.551 0.692 -2.472 0.236 -3.737l-3.524 2.272 -1.011 -0.659c1.56 -3.721 2.752 -7.66 4.799 -11.089 1.582 -2.649 4.81 -4.022 7.591 -2.039 1.635 1.167 2.666 3.816 2.95 5.935 0.118 0.876 -2.313 2.387 -3.827 3.043 -0.592 0.256 -1.855 -1.04 -2.813 -1.63 0.917 -1.169 1.853 -2.323 2.732 -3.52 0.138 -0.187 0.02 -0.563 0.02 -2.638 -2.354 1.933 -5.182 3.314 -5.06 4.349 0.261 2.222 1.573 5.315 3.329 6.101 1.934 0.867 4.849 -0.454 7.473 -0.498 0.443 0.951 0.75 1.582 1.056 2.211 0.137 0.924 0.275 1.847 0.417 3.293 -0.243 1.316 -0.491 2.11 -0.738 2.904 -2.504 -1.883 -5.012 -3.704 -7.258 -1.435 1.352 1.64 2.724 2.97 3.528 4.583 0.153 0.308 -2.096 2.644 -2.975 2.494 -4.38 -0.742 -4.44 -4.174 -3.769 -7.948 -1.033 0.188 -1.749 0.319 -2.808 0.501" stroke-width="0.9274185022026431"/><path fill="#BB6432" opacity="1.000000" stroke="none" d="M127.95 36.854c0.125 1.282 0.269 2.984 -0.238 3.206 -0.908 0.398 -2.732 0.329 -3.234 -0.298 -0.965 -1.203 -2.1 -3.257 -1.663 -4.368 0.701 -1.785 2.35 -3.788 4.08 -4.463 4.861 -1.895 9.682 2.734 9.492 8.718 -0.237 7.456 -7.322 16.579 -15.361 19.487 -0.522 -3.96 4.074 -8.526 -1.491 -12.186l-1.934 4.007 -1.211 0.209c-0.234 -1.472 -1.175 -3.618 -0.552 -4.272 1.196 -1.252 3.414 -2.502 4.971 -2.254 4.668 0.744 4.327 4.851 5.625 8.97 2.296 -4.028 5.014 -7.883 6.742 -12.14 1.203 -2.965 0.505 -6.339 -3.44 -7.333 -1.695 -0.427 -3.783 -0.355 -1.787 2.716" stroke-width="0.9274185022026431"/><path fill="#C66B24" opacity="1.000000" stroke="none" d="M105.577 101.034c4.625 -4.783 3.009 -9.697 0.556 -14.832 -3.405 -7.136 -3.013 -8.883 1.391 -12.533 1.636 3.537 2.878 7.566 5.155 10.886 6.551 9.55 5.933 14.353 -3.792 20.951 -0.363 -2.367 -0.039 -4.7 -3.311 -4.472" stroke-width="0.9274185022026431"/><path fill="#BE6524" opacity="1.000000" stroke="none" d="M87.073 71.961c0.167 -0.431 0.333 -0.86 0.941 -1.505 0.604 -0.501 0.768 -0.788 0.933 -1.076 0 0 -0.001 0.087 0.339 0.108 2.606 0.745 5.657 -2.732 7.304 1.318 -3.262 5.59 -2.411 11.099 0.065 16.721 1.248 2.839 1.973 5.91 2.951 8.925 -4.069 -3.548 -8.052 -6.547 -11.439 -10.111 -3.298 -3.47 -3.725 -7.913 -1.836 -12.949 0.532 -0.791 0.637 -1.111 0.742 -1.432" stroke-width="0.9274185022026431"/><path fill="#633C2C" opacity="1.000000" stroke="none" d="M177.111 186.644c9.497 2.242 14.338 8.953 12.145 16.835 -1.131 4.061 -6.154 8.592 -10.232 7.707 -2.633 -0.571 -5.549 -3.389 -6.733 -5.944 -0.871 -1.881 0.374 -5.259 1.651 -7.381 0.57 -0.945 3.615 -0.802 5.391 -0.44 0.835 0.17 1.329 2.025 1.977 3.115 -0.992 0.157 -2.031 0.18 -2.963 0.505 -0.985 0.345 -1.869 0.977 -2.799 1.485 0.907 1.426 1.497 3.587 2.781 4.143 4.103 1.775 8.773 -3.081 7.8 -7.943 -0.949 -4.749 -4.238 -7.315 -8.915 -9.228 -0.529 -1.055 -0.775 -1.603 -0.836 -2.222 0.424 -0.202 0.606 -0.389 0.733 -0.63" stroke-width="0.9274185022026431"/><path fill="#653C2B" opacity="1.000000" stroke="none" d="M20.471 189.385c-2.511 1.697 -5.437 3.01 -7.442 5.176 -3.524 3.812 -2.397 10.12 2.038 11.663 1.734 0.603 4.177 -0.408 6.125 -1.138 0.487 -0.183 0.584 -2.194 0.312 -3.219 -0.107 -0.402 -1.734 -0.348 -2.64 -0.605 -0.998 -0.283 -1.963 -0.686 -2.942 -1.039 0.575 -0.992 0.915 -2.324 1.768 -2.92 3.391 -2.369 7.859 0.212 8.247 4.706 0.332 3.856 -1.54 6.542 -4.924 8.097 -3.642 1.673 -8.619 0.095 -11.129 -3.309 -4.399 -5.967 -2.024 -14.716 5.091 -18.425 1.483 -0.773 3.17 -1.155 5.099 -1.361 0.358 1.03 0.376 1.703 0.397 2.374" stroke-width="0.9274185022026431"/><path fill="#BA5F28" opacity="1.000000" stroke="none" d="M41.1 49.129c-1.399 -0.487 -2.488 -0.897 -3.444 -1.543 1.146 -0.765 2.157 -1.293 3.169 -1.819 21.173 -1.42 36.419 18.098 30.321 39.877 0.353 -16.458 -5.359 -29.089 -21.92 -35.62 -1.171 -0.504 -1.836 -0.588 -2.502 -0.671 -0.556 0.013 -1.113 0.026 -2.063 -0.275 -0.927 -0.208 -1.459 -0.103 -1.993 0.001a9.409 9.409 0 0 1 -1.568 0.05" stroke-width="0.9274185022026431"/><path fill="#5F3724" opacity="1.000000" stroke="none" d="m45.91 164.693 6.086 21.895 -1.699 0.779c-2.743 -6.38 -8.123 -9.546 -13.706 -12.824 -3.103 -1.822 -5.131 -5.476 -7.094 -8.785 1.175 -0.6 1.802 -0.72 2.643 -0.628 2.287 3.786 4.48 7.197 10.207 7.513l-7.416 -8.115 0.99 -1.114c2.226 0.809 4.454 1.619 6.698 2.764 0.217 0.917 0.418 1.5 0.531 1.831z" stroke-width="0.9274185022026431"/><path fill="#B96333" opacity="1.000000" stroke="none" d="M74.52 38.233c-1.778 0.769 -3.413 1.215 -5.048 1.662l0.533 -5.359c-0.64 0 -2.502 -0.529 -3.081 0.109 -1.234 1.359 -2.499 3.316 -2.509 5.038 -0.037 5.484 3.558 9.237 7.426 13.528 0.344 -2.125 0.294 -3.819 0.941 -5.182 0.525 -1.105 1.885 -1.815 2.582 -2.437l0.728 12.934c-7.633 -1.355 -16.161 -13.591 -14.555 -21.394 0.877 -4.264 4.409 -7.207 8.169 -6.507 3.956 0.737 5.87 3.111 4.816 7.608" stroke-width="0.9274185022026431"/><path fill="#C0652B" opacity="1.000000" stroke="none" d="M49.755 87.429c-1.431 -1.057 -2.86 -2.135 -4.301 -3.562 6.914 -0.608 11.754 3.816 12.01 10.637 0.209 5.518 -4.025 10.345 -9.374 10.687 -5.449 0.348 -9.941 -4.576 -8.468 -9.357 0.308 -0.998 0.803 -2.489 1.524 -2.706 1.857 -0.555 3.934 -0.826 5.825 -0.548 0.608 0.089 0.914 2.245 1.358 3.455l-5.472 0.998c-0.862 2.04 0.156 3.805 2.911 4.373 3.364 0.693 6.258 -0.367 7.558 -3.735 1.253 -3.249 0.776 -6.371 -2.303 -9.348 -0.6 -0.659 -0.917 -0.796 -1.234 -0.933 0 0 -0.032 0.019 -0.034 0.037" stroke-width="0.9274185022026431"/><path fill="#5F3726" opacity="1.000000" stroke="none" d="M20.877 189.397c-0.425 -0.685 -0.445 -1.358 -0.466 -2.367 0.413 -0.423 0.826 -0.51 1.711 -0.381 0.841 0.141 1.209 0.065 1.577 -0.013l-1.452 -1.15c-2.937 -2.493 -5.872 -4.988 -8.374 -7.888 1.181 -0.571 1.928 -0.735 2.674 -0.899 0.415 0.392 0.83 0.784 1.267 1.666 0.654 0.803 1.289 1.115 1.924 1.428 2.822 1.449 5.643 2.896 8.75 4.858a107.682 107.682 0 0 0 1.551 2.514l1.519 -1.774c5.595 1.952 11.192 3.905 16.656 6.163 -1.993 0.63 -3.856 0.957 -5.717 1.282 -4.799 -1.308 -9.552 -2.834 -14.415 -3.819 -2.152 -0.436 -4.527 0.227 -7.206 0.378" stroke-width="0.9274185022026431"/><path fill="#633C2C" opacity="1.000000" stroke="none" d="M176.836 186.533c0.148 0.353 -0.033 0.54 -0.795 0.739 -4.505 -0.74 -0.506 -3.371 -1.641 -4.829l10.763 -10.054 -0.893 -1.508h-8.929c3.218 -4.462 5.967 -5.098 13.919 -3.404 -2.094 7.722 -6.001 13.947 -13.17 17.865 -0.172 0.094 -0.35 0.554 -0.278 0.644 0.169 0.21 0.49 0.299 1.025 0.547" stroke-width="0.9274185022026431"/><path fill="#B85F27" opacity="1.000000" stroke="none" d="M96.865 70.641c-1.924 -3.887 -4.973 -0.408 -7.619 -1.173 1.749 -2.019 4.033 -3.859 5.967 -6.014 2.561 -2.854 5.36 -5.713 2.732 -10.19 -0.517 -0.881 0.408 -2.608 0.765 -4.445 5.645 6.764 6.469 14.79 -1.845 21.822" stroke-width="0.9274185022026431"/><path fill="#673D2B" opacity="1.000000" stroke="none" d="M31.924 164.917c-0.626 0.12 -1.252 0.241 -2.337 0.512 -0.459 0.149 -0.481 0.097 -0.431 -0.239 -0.3 -0.525 -0.651 -0.712 -1.002 -0.899l-2.785 -10.156c9.346 -0.21 16.14 2.71 20.567 10.437 -0.907 1.178 -1.788 2.235 -2.789 3.437 -0.113 -0.33 -0.314 -0.914 -0.599 -2.136 -3.98 -3.648 -7.877 -6.657 -11.774 -9.666l-1.396 1.137z" stroke-width="0.9274185022026431"/><path fill="#BF662D" opacity="1.000000" stroke="none" d="M134.125 58.091c-0.837 2.178 -2.071 4.168 -3.367 6.482 -1.039 2.719 -2.016 5.114 -3.15 8.066 -0.057 1.08 0.046 1.605 0.148 2.131l-1.237 11.085c-4.814 -4.229 -3.162 -17.471 3.64 -27.351 1.354 -0.318 2.463 -0.459 3.966 -0.412" stroke-width="0.9274185022026431"/><path fill="#5D3521" opacity="1.000000" stroke="none" d="m12.038 175.291 -3.65 -7.333c8.92 -3.449 20.474 0.241 21.824 6.607 -4.239 -1.379 -8.432 -2.949 -12.752 -3.997 -1.03 -0.251 -2.483 1.239 -3.733 2.598 -0.556 1.154 -1.122 1.64 -1.688 2.125" stroke-width="0.9274185022026431"/><path fill="#BE6631" opacity="1.000000" stroke="none" d="M131.685 76.036c0.987 -0.168 2.02 -0.571 2.971 -0.431 2.395 0.356 4.896 0.659 7.032 1.665 0.556 0.263 -0.067 3.031 -0.148 4.648 -1.232 -0.634 -2.494 -1.213 -3.677 -1.927 -0.458 -0.275 -0.733 -0.856 -1.447 -1.736 -5.017 4.924 -1.795 10.189 -1.215 15.293 -4.974 -3.739 -5.778 -9.029 -3.148 -17.273 -0.387 -0.244 -0.36 -0.227 -0.368 -0.241" stroke-width="0.9274185022026431"/><path fill="#C06933" opacity="1.000000" stroke="none" d="M62.49 91.777c2.263 -9.092 2.209 -9.573 -1.261 -12.928 -0.272 0.076 -0.621 0.074 -0.825 0.248 -1.227 1.046 -2.42 2.133 -3.626 3.205 -0.644 -0.791 -1.996 -1.917 -1.809 -2.315 0.796 -1.682 1.721 -3.718 3.204 -4.572 2.932 -1.689 6.334 0.304 7.98 4.121 1.443 3.346 0.382 10.305 -2.056 12.694 -0.282 0.275 -1.178 -0.077 -1.608 -0.454" stroke-width="0.9274185022026431"/><path fill="#B96430" opacity="1.000000" stroke="none" d="M102.947 46.93c0.209 -1.252 0.508 -2.213 1.148 -3.359a103.5 103.5 0 0 1 7.939 9.662c3.594 4.931 4.835 9.416 3.765 13.064 -4.282 -6.399 -8.523 -12.737 -12.852 -19.366" stroke-width="0.9274185022026431"/><path fill="#623A28" opacity="1.000000" stroke="none" d="M42.179 193.007c2.18 -0.493 4.042 -0.818 6.261 -1.195 0.358 -0.051 0.597 -0.069 0.786 0.25 0.493 0.436 0.798 0.554 1.102 0.672 0 0 -0.013 0.015 -0.003 -0.001 0.051 3.947 -3.207 2.551 -5.878 3.441 -3.013 0.658 -5.356 1.067 -8.009 1.546 -0.579 0.376 -0.847 0.686 -1.218 1.218 -0.594 0.64 -1.085 1.057 -1.575 1.474 -0.965 1.163 -1.877 2.374 -2.925 3.454 -0.322 0.331 -1.016 0.3 -1.768 0.298 0.842 -6.409 4.331 -9.755 10.381 -10.38 0.855 -0.088 1.686 -0.399 2.846 -0.777" stroke-width="0.9274185022026431"/><path fill="#C0682B" opacity="1.000000" stroke="none" d="M64.149 116.387c0.055 1.706 -0.144 3.142 -0.195 4.581 -0.06 1.677 0.013 3.357 -0.16 5.392 -1.088 -2.206 -1.988 -4.765 -2.784 -8.017 -0.264 -1.247 -0.634 -1.802 -1.002 -2.355 -1.218 -0.742 -2.797 -1.225 -3.561 -2.292 -0.941 -1.314 -1.703 -3.162 -1.558 -4.687 0.079 -0.842 2.564 -2.362 3.276 -2.042 1.393 0.626 3.431 2.6 3.205 3.532 -0.697 2.878 0.6 4.273 2.778 5.887" stroke-width="0.9274185022026431"/><path fill="#BE6522" opacity="1.000000" stroke="none" d="M134.061 126.762c-3.844 -1.057 -9.113 1.029 -10.672 -5.05 2.518 -0.803 5.122 -0.976 7.498 -1.803 1.75 -0.611 3.203 -2.075 5.912 -2.621 -0.85 3.069 -1.7 6.139 -2.739 9.475" stroke-width="0.9274185022026431"/><path fill="#BF6420" opacity="1.000000" stroke="none" d="M105.293 101.144c3.557 -0.339 3.233 1.995 3.295 4.477 -1.426 2.296 -2.882 4.188 -4.506 6.338 -1.956 -0.862 -3.744 -1.981 -5.704 -3.375 2.096 -2.625 4.362 -4.976 6.914 -7.438" stroke-width="0.9274185022026431"/><path fill="#B9612D" opacity="1.000000" stroke="none" d="M51.762 36.499c-1.109 1.281 -1.885 2.431 -2.66 3.582 -0.733 -1.198 -2.347 -2.824 -2.017 -3.507 0.741 -1.533 2.29 -3.38 3.799 -3.691 3.305 -0.677 7.563 3.661 7.88 7.543 0.108 1.315 -0.227 2.666 -0.356 3.955 -2.189 -2.778 -4.251 -5.393 -6.646 -7.881" stroke-width="0.9274185022026431"/><path fill="#F8F0EC" opacity="1.000000" stroke="none" d="M25.999 127.042c0.394 -0.168 0.576 0.199 0.824 0.25 1.703 0.349 3.42 0.634 5.132 0.939l-1.575 -5.123c0.509 -0.186 1.951 -1.237 2.704 -0.872 1.205 0.586 2.844 2.23 2.712 3.216 -0.295 2.218 -0.987 5.032 -2.563 6.287 -2.739 2.18 -5.805 0.965 -8.369 -1.725 0.221 -1.037 0.588 -1.81 1.137 -2.971" stroke-width="0.9274185022026431"/><path fill="#65361D" opacity="1.000000" stroke="none" d="M171.563 165.994c-0.464 -0.946 -1.298 -1.879 -1.335 -2.842 -0.327 -8.364 -6.477 -10.264 -12.932 -11.919 -1.101 -0.283 -2.138 -0.815 -3.273 -1.575 9.081 -1.712 15.286 2.012 17.93 11.338 -0.343 2.119 -0.366 3.559 -0.388 4.998" stroke-width="0.9274185022026431"/><path fill="#B65C2B" opacity="1.000000" stroke="none" d="M141.322 41.158c-0.522 1.294 -0.899 2.263 -1.373 3.479 -2.085 -5.353 0.181 -10.654 5.115 -11.364 1.623 -0.234 3.905 1.437 5.172 2.87 0.436 0.491 -1.303 2.906 -2.049 4.442l-1.408 -0.539 -1.194 -4.533c-1.721 2.221 -2.921 3.769 -4.266 5.644" stroke-width="0.9274185022026431"/><path fill="#B9612F" opacity="1.000000" stroke="none" d="M188.242 109.085c0.175 -1.128 0.422 -1.922 0.798 -3.005 4.515 4.768 4.012 12.042 -1.257 14.602 -1.929 0.937 -4.559 0.434 -6.886 -0.021 8.539 -4.609 9.066 -5.36 7.345 -11.576" stroke-width="0.9274185022026431"/><path fill="#C26B30" opacity="1.000000" stroke="none" d="M81.418 109.152c-0.621 1.283 -1.286 2.231 -2.091 3.385 -0.343 -0.681 -0.634 -1.257 -1.134 -1.989 0.048 -2.049 0.373 -3.654 -1.732 -5.193 -0.913 -0.667 -0.634 -3.548 -0.154 -5.211 0.164 -0.566 3.455 -1.089 3.831 -0.566 0.992 1.384 1.372 3.326 1.612 5.097 0.182 1.339 -0.226 2.758 -0.329 4.476" stroke-width="0.9274185022026431"/><path fill="#B15D2F" opacity="1.000000" stroke="none" d="M117.246 40.943c-1.269 3.015 -3.767 4.396 -6.596 3.183 -1.499 -0.644 -2.543 -3.005 -3.095 -4.805 -0.169 -0.556 1.959 -1.818 3.035 -2.757l2.353 4.498c0.246 -0.108 0.902 -0.392 2.135 -0.784 1.106 0.151 1.637 0.408 2.167 0.664" stroke-width="0.9274185022026431"/><path fill="#623D31" opacity="1.000000" stroke="none" d="M29.539 181.924c-3.388 -1.787 -6.503 -3.492 -10.294 -5.567 5.068 -1.881 10.962 1.496 11.389 5.484 0.003 0.025 -0.535 0.109 -1.097 0.084" stroke-width="0.9274185022026431"/><path fill="#573321" opacity="1.000000" stroke="none" d="M87.387 224.356c3.111 -0.615 6.534 -1.327 9.987 -1.532 2.246 -0.134 4.535 0.473 7.232 0.767 -3.056 0.423 -6.531 0.962 -10.026 1.18 -2.275 0.142 -4.579 -0.183 -7.193 -0.415" stroke-width="0.9274185022026431"/><path fill="#AF5C2C" opacity="1.000000" stroke="none" d="M100.253 30.594c-1.409 -0.547 -3.608 -1.326 -3.744 -2.371 -0.284 -2.18 0.522 -4.502 1.01 -7.589 3.781 3.264 4.402 6.164 2.734 9.96" stroke-width="0.9274185022026431"/><path fill="#C06322" opacity="1.000000" stroke="none" d="M136.173 111.154c0.125 -3.411 1.732 -5.017 4.674 -3.98 1.039 0.365 1.96 2.259 2.091 3.542 0.076 0.745 -1.393 2.097 -2.4 2.4 -1.589 0.479 -3.903 1.653 -4.365 -1.961" stroke-width="0.9274185022026431"/><path fill="#5D2D11" opacity="1.000000" stroke="none" d="M138.501 142.702c0.773 0.341 1.547 0.681 2.446 1.586 -0.215 2.049 -0.556 3.532 -0.898 5.015 0 0 -0.007 0.009 -0.226 0.006 -0.22 -0.004 -0.652 -0.013 -0.917 -0.136a31.364 31.364 0 0 1 -2.727 -2.077c-0.376 -0.392 -0.655 -0.492 -1.246 -0.505 -0.899 -0.364 -1.526 -0.707 -2.154 -1.05 0.128 -0.144 0.256 -0.287 0.911 -0.686 1.955 -0.887 3.382 -1.521 4.809 -2.154" stroke-width="0.9274185022026431"/><path fill="#B66233" opacity="1.000000" stroke="none" d="M117.485 40.703c-0.769 -0.017 -1.302 -0.274 -2.099 -0.653 -0.596 -2.379 -0.924 -4.636 -1.435 -7.162 0.74 -0.615 1.663 -0.956 2.962 -1.314 2.949 2.832 2.096 5.85 0.573 9.13" stroke-width="0.9274185022026431"/><path fill="#562B14" opacity="1.000000" stroke="none" d="M174.073 182.512c1.463 1.389 -2.535 4.02 1.784 4.831 0.584 0.551 0.83 1.099 1.129 1.942 -0.343 0.227 -0.74 0.159 -1.658 -0.269 -1.697 -0.465 -2.872 -0.571 -4.047 -0.676 -0.844 -1.072 -1.686 -2.142 -2.51 -3.495 1.672 -0.942 3.322 -1.604 5.303 -2.333" stroke-width="0.9274185022026431"/><path fill="#B65F2C" opacity="1.000000" stroke="none" d="M189.383 92.742c0.572 -1.111 1.146 -2.223 1.744 -3.686 0.168 3.019 0.314 6.388 0.202 9.698 -0.811 -0.807 -1.367 -1.554 -1.952 -2.671 -0.017 -1.36 -0.004 -2.35 0.007 -3.339" stroke-width="0.9274185022026431"/><path fill="#B9622D" opacity="1.000000" stroke="none" d="M189.403 96.452c0.556 0.747 1.113 1.494 1.68 2.546 0.013 0.304 -0.023 0.263 -0.241 0.429a5.227 5.227 0 0 0 -0.605 1.27c-0.424 0.54 -0.849 1.08 -1.51 1.738 -0.544 -0.51 -0.85 -1.141 -1.167 -2.361 0.606 -1.601 1.224 -2.612 1.843 -3.622" stroke-width="0.9274185022026431"/><path fill="#60331B" opacity="1.000000" stroke="none" d="M140.36 149.168c0.03 -1.35 0.371 -2.832 0.769 -4.698 1.404 0.854 2.753 2.093 4.148 3.633 -1.502 0.51 -3.055 0.721 -4.918 1.065" stroke-width="0.9274185022026431"/><path fill="#60331B" opacity="1.000000" stroke="none" d="M52.425 159.944c1.081 -0.065 3.512 -1.443 2.219 1.647 -0.269 0.645 0.881 1.884 1.502 3.092a42.864 42.864 0 0 1 -2.458 0.464c-0.67 -1.603 -0.994 -3.224 -1.264 -5.203" stroke-width="0.9274185022026431"/><path fill="#562B14" opacity="1.000000" stroke="none" d="M167.901 169.127c0.987 -0.325 2.008 -0.316 3.413 -0.282 0.322 1.14 0.259 2.256 -0.08 3.561 -1.286 -0.855 -2.291 -1.899 -3.332 -3.279" stroke-width="0.9274185022026431"/><path fill="#653C2B" opacity="1.000000" stroke="none" d="M12.038 175.542c0.566 -0.735 1.131 -1.221 1.813 -1.968 0.881 0.687 1.644 1.637 2.551 2.856 -0.603 0.436 -1.35 0.599 -2.662 0.86 -0.943 -0.436 -1.321 -0.969 -1.702 -1.751" stroke-width="0.9274185022026431"/><path fill="#60331B" opacity="1.000000" stroke="none" d="M138.294 142.457c-1.221 0.879 -2.649 1.512 -4.411 2.183 -0.331 -0.376 -0.327 -0.791 -0.099 -1.666 0.381 -0.956 0.536 -1.451 0.692 -1.948 1.203 0.395 2.408 0.79 3.818 1.431" stroke-width="0.9274185022026431"/><path fill="#60331B" opacity="1.000000" stroke="none" d="M63.569 140.74c-1.076 0.723 -2.483 1.466 -4.185 2.08 1.087 -0.772 2.469 -1.417 4.185 -2.08" stroke-width="0.9274185022026431"/><path fill="#653C2B" opacity="1.000000" stroke="none" d="M31.329 185.193c-0.278 0.793 -0.784 1.384 -1.291 1.976 -0.422 -0.667 -0.844 -1.334 -1.274 -2.342 0.774 -0.172 1.557 -0.004 2.566 0.366" stroke-width="0.9274185022026431"/><path fill="#BB6736" opacity="1.000000" stroke="none" d="M40.494 45.692c-0.68 0.601 -1.69 1.129 -3.031 1.663 -0.328 0.007 -0.356 -0.316 -0.341 -0.478 1.022 -0.527 2.031 -0.892 3.372 -1.186" stroke-width="0.9274185022026431"/><path fill="#562B14" opacity="1.000000" stroke="none" d="M171.567 166.359c0.019 -1.804 0.04 -3.244 0.107 -5.117 0.258 2.14 0.473 4.713 0.333 7.477 -0.381 -0.538 -0.409 -1.267 -0.44 -2.36" stroke-width="0.9274185022026431"/><path fill="#562B14" opacity="1.000000" stroke="none" d="M162.812 184.102c0.638 -0.998 1.564 -2.118 2.858 -3.239 -0.612 1.039 -1.59 2.077 -2.858 3.24" stroke-width="0.9274185022026431"/><path fill="#623A28" opacity="1.000000" stroke="none" d="M36.469 214.968c-0.089 -0.792 0.128 -1.487 0.344 -2.18 0.4 0.503 0.801 1.007 1.209 1.803 -0.41 0.352 -0.829 0.414 -1.552 0.375" stroke-width="0.9274185022026431"/><path fill="#562B14" opacity="1.000000" stroke="none" d="M158.904 190.052c0.131 -0.584 0.58 -1.158 1.589 -1.753 0.967 0.266 1.376 0.551 1.785 0.834 -1.017 0.31 -2.035 0.62 -3.372 0.918" stroke-width="0.9274185022026431"/><path fill="#5D3521" opacity="1.000000" stroke="none" d="M32.191 178.442c-0.668 -0.801 -0.981 -1.52 -1.292 -2.239l1.226 -0.304c0.14 0.875 0.281 1.749 0.065 2.544" stroke-width="0.9274185022026431"/><path fill="#633C2C" opacity="1.000000" stroke="none" d="M162.593 189.204c-0.726 -0.354 -1.133 -0.64 -1.802 -0.943 0.844 0.057 1.95 0.135 3.207 0.458 -0.26 0.349 -0.674 0.453 -1.405 0.485" stroke-width="0.9274185022026431"/><path fill="#60331B" opacity="1.000000" stroke="none" d="M133.55 141.884c-0.591 -0.397 -1.181 -0.792 -1.817 -1.479 0.485 -0.212 1.014 -0.136 1.695 0.43 0.143 0.676 0.133 0.862 0.122 1.05" stroke-width="0.9274185022026431"/><path fill="#653C2B" opacity="1.000000" stroke="none" d="M22.305 185.734c0.424 0.138 0.908 0.522 1.393 0.904 -0.368 0.077 -0.736 0.153 -1.259 0.033 -0.128 -0.363 -0.102 -0.529 -0.135 -0.939" stroke-width="0.9274185022026431"/><path fill="#633C2C" opacity="1.000000" stroke="none" d="M171.333 188.454a14.218 14.218 0 0 1 3.71 0.456c-0.782 0.228 -1.802 0.202 -3.176 0.023 -0.354 -0.153 -0.481 -0.367 -0.534 -0.48" stroke-width="0.9274185022026431"/><path fill="#653C2B" opacity="1.000000" stroke="none" d="M19.589 179.54c-0.487 -0.055 -1.122 -0.368 -1.67 -0.983 0.563 0.04 1.042 0.383 1.67 0.983" stroke-width="0.9274185022026431"/><path fill="#52260C" opacity="1.000000" stroke="none" d="M157.303 193.788c-0.489 0.225 -1.315 0.34 -2.297 0.209 0.55 -0.27 1.253 -0.294 2.297 -0.209" stroke-width="0.9274185022026431"/><path fill="#BB6736" opacity="1.000000" stroke="none" d="M46.972 49.577c0.417 -0.14 1.083 -0.056 1.971 0.287 -0.427 0.153 -1.075 0.045 -1.971 -0.287" stroke-width="0.9274185022026431"/><path fill="#60331C" opacity="1.000000" stroke="none" d="M133.552 142.116c0.007 -0.419 0.019 -0.605 0.051 -1.072 0.179 -0.283 0.333 -0.284 0.681 -0.153 0.036 0.63 -0.12 1.126 -0.497 1.771 -0.218 0.148 -0.232 -0.316 -0.235 -0.547" stroke-width="0.9274185022026431"/><path fill="#BE6522" opacity="1.000000" stroke="none" d="M132.135 133.387c-0.489 -0.075 -0.924 -0.251 -1.36 -0.427 0.282 -0.04 0.562 -0.08 1.11 -0.01 0.267 0.111 0.303 0.336 0.251 0.436" stroke-width="0.9274185022026431"/><path fill="#F9F3F0" opacity="1.000000" stroke="none" d="M144.901 69.4c0.243 0.152 0.381 0.782 0.178 1.432 -0.32 -0.306 -0.301 -0.63 -0.178 -1.432" stroke-width="0.9274185022026431"/><path fill="#562B14" opacity="1.000000" stroke="none" d="M156.108 190.986q0.308 -0.425 1.5 -0.792 -0.309 0.425 -1.5 0.792" stroke-width="0.9274185022026431"/><path fill="#B75D1B" opacity="1.000000" stroke="none" d="M60.039 116.335c0.338 0.208 0.707 0.762 1.065 1.679 -0.352 -0.202 -0.693 -0.767 -1.065 -1.679" stroke-width="0.9274185022026431"/><path fill="#B65F2F" opacity="1.000000" stroke="none" d="M42.969 49.181c0.232 -0.207 0.766 -0.31 1.427 -0.205 -0.291 0.241 -0.709 0.274 -1.427 0.204" stroke-width="0.9274185022026431"/><path fill="#B65F2C" opacity="1.000000" stroke="none" d="M190.478 100.526q-0.168 -0.296 0.39 -1.103 0.17 0.296 -0.39 1.103" stroke-width="0.9274185022026431"/><path fill="#5D2D11" opacity="1.000000" stroke="none" d="M55.393 144.73c0.037 0.202 -0.177 0.439 -0.624 0.742 -0.031 -0.193 0.171 -0.45 0.624 -0.742" stroke-width="0.9274185022026431"/><path fill="#B65F2C" opacity="1.000000" stroke="none" d="M173.683 107.525q-0.021 -0.316 0.698 -0.642 0.021 0.314 -0.698 0.641" stroke-width="0.9274185022026431"/><path fill="#B9622D" opacity="1.000000" stroke="none" d="M49.899 87.629c0.206 -0.1 0.523 0.037 0.945 0.42q-0.31 0.152 -0.945 -0.42" stroke-width="0.9274185022026431"/><path fill="#F9F3F0" opacity="1.000000" stroke="none" d="M127.807 74.263c-0.154 -0.021 -0.257 -0.546 -0.16 -1.295 0.204 0.113 0.207 0.452 0.16 1.295" stroke-width="0.9274185022026431"/><path fill="#B85F27" opacity="1.000000" stroke="none" d="M86.866 72.117c0.102 0.163 -0.004 0.483 -0.307 0.965 -0.099 -0.161 0 -0.485 0.307 -0.965" stroke-width="0.9274185022026431"/><path fill="#B85F27" opacity="1.000000" stroke="none" d="M88.706 69.472c0.077 0.194 -0.087 0.482 -0.482 0.876 -0.073 -0.191 0.084 -0.488 0.482 -0.876" stroke-width="0.9274185022026431"/><path fill="#60331B" opacity="1.000000" stroke="none" d="M57.16 143.55c0.255 0.143 0.275 0.337 0.316 0.822 -0.245 0.225 -0.474 0.095 -0.779 -0.262 0.004 -0.28 0.116 -0.394 0.464 -0.559" stroke-width="0.9274185022026431"/><path fill="#60331B" opacity="1.000000" stroke="none" d="M52.1 157.963c0.222 0.057 0.386 0.4 0.476 1.031 -0.226 -0.056 -0.381 -0.401 -0.476 -1.031" stroke-width="0.9274185022026431"/><path fill="#60331B" opacity="1.000000" stroke="none" d="M70.236 138.849c0.01 0.209 -0.232 0.382 -0.579 0.398 0.039 -0.25 0.183 -0.342 0.579 -0.398" stroke-width="0.9274185022026431"/><path fill="#60331B" opacity="1.000000" stroke="none" d="M54.769 172.739c0.167 0.001 0.292 0.238 0.29 0.572 -0.194 -0.047 -0.264 -0.192 -0.29 -0.572" stroke-width="0.9274185022026431"/><path fill="#60331B" opacity="1.000000" stroke="none" d="M126.534 138.697c-0.166 0.168 -0.527 0.13 -1.097 -0.089 0.162 -0.16 0.531 -0.139 1.097 0.089" stroke-width="0.9274185022026431"/><path fill="#60331B" opacity="1.000000" stroke="none" d="M53.989 169.092q0.326 0.067 0.507 0.982 -0.326 -0.069 -0.507 -0.982" stroke-width="0.9274185022026431"/><path fill="#60331B" opacity="1.000000" stroke="none" d="M79.522 137.223c-0.009 0.175 -0.255 0.296 -0.593 0.275 0.057 -0.204 0.207 -0.267 0.593 -0.275" stroke-width="0.9274185022026431"/><path fill="#60331B" opacity="1.000000" stroke="none" d="M76.67 137.481c-0.037 0.217 -0.35 0.386 -0.94 0.532 0.037 -0.209 0.349 -0.395 0.94 -0.532" stroke-width="0.9274185022026431"/><path fill="#5F3724" opacity="1.000000" stroke="none" d="M28.203 164.569c0.302 -0.092 0.653 0.095 0.941 0.596 -0.34 0.102 -0.615 -0.108 -0.94 -0.596" stroke-width="0.9274185022026431"/><path fill="#60331B" opacity="1.000000" stroke="none" d="M86.012 136.416c-0.008 0.167 -0.247 0.275 -0.577 0.254 0.053 -0.189 0.201 -0.252 0.577 -0.254" stroke-width="0.9274185022026431"/><path fill="#BE6522" opacity="1.000000" stroke="none" d="M132.276 132.789q-0.249 -0.248 0.083 -0.937 0.249 0.248 -0.084 0.937" stroke-width="0.9274185022026431"/><path fill="#BE6522" opacity="1.000000" stroke="none" d="M121.841 117.425c-0.224 -0.032 -0.289 -0.253 -0.264 -0.668 0.251 -0.007 0.362 0.217 0.264 0.668" stroke-width="0.9274185022026431"/><path fill="#562B14" opacity="1.000000" stroke="none" d="M154.228 191.867c-0.007 -0.217 0.253 -0.43 0.769 -0.665 0.004 0.209 -0.249 0.439 -0.769 0.665" stroke-width="0.9274185022026431"/><path fill="#5F3726" opacity="1.000000" stroke="none" d="M50.208 192.509c-0.184 0.107 -0.488 -0.013 -0.925 -0.342 0.18 -0.102 0.491 0.007 0.925 0.342" stroke-width="0.9274185022026431"/><path fill="#FAF8F8" opacity="1.000000" stroke="none" d="M132.701 145.471c0.705 0.414 1.332 0.757 2.345 1.33 0.68 0.312 0.974 0.393 1.269 0.475 0.776 0.591 1.55 1.181 2.649 2.121 0.569 0.522 0.813 0.695 1.058 0.869 0 0 0.016 -0.024 0.019 0.326 -0.028 1.035 -0.06 1.719 -0.091 2.402 -2.291 1.408 -4.582 2.815 -7.405 4.447 -0.868 0.427 -1.204 0.628 -1.541 0.831a181.909 181.909 0 0 1 -5.802 1.257c-2.329 0.448 -4.016 0.825 -5.701 1.199 -6.157 0.71 -6.157 0.71 -5.317 8.148 2.593 -0.276 5.443 0.013 7.759 -0.965 3.585 -1.509 3.951 0.136 3.967 2.897 0.011 1.836 0.059 3.671 0.163 5.917 -0.753 0.231 -2.207 0.206 -2.297 -0.157 -0.362 -1.462 -0.303 -3.028 -0.441 -5.219 -3.322 0.191 -7.312 -0.674 -9.642 0.906 -1.82 1.234 -1.582 5.504 -2.998 8.597a33.455 33.455 0 0 1 -0.594 -3.614c-0.053 -1.129 -0.122 -1.559 -0.192 -1.989 0.059 -0.992 0.117 -1.986 0.194 -3.561a2.614 2.614 0 0 0 -0.165 -1.007c0.046 -4.701 0.093 -9.402 0.16 -14.716 -0.016 -0.967 -0.21 -1.165 -0.566 -1.205 0 0 -0.086 0.084 -0.084 -0.195 -0.313 -0.351 -0.625 -0.422 -0.939 -0.493l-2.968 -6.485c-1.662 0.257 -4.109 0.636 -6.715 1.584 -0.16 0.57 0.032 0.94 -0.072 1.293 -0.06 0.836 -0.013 1.321 -0.129 2.063 -3.719 4.974 -1.385 10.317 -1.762 15.372 -0.053 0.398 -0.106 0.798 -0.181 1.892 0.051 2.897 0.123 5.098 0.194 7.298l-1.803 0.455c-0.109 -0.895 -0.316 -1.79 -0.308 -2.684 0.032 -4.192 0.596 -8.498 -2.906 -12.568 -2.339 -5.212 -5.858 -1.685 -9.187 -2.756 0.213 2.052 0.349 3.368 0.484 4.684 -0.522 3.089 -1.044 6.179 -2.101 9 -0.658 -0.384 -0.779 -0.501 -0.901 -0.618 0.053 -3.495 0.106 -6.989 0.16 -11.044 -0.071 -0.855 -0.256 -0.965 -0.552 -0.885 -0.538 -0.217 -1.076 -0.436 -2.175 -0.769a61.682 61.682 0 0 0 -3.388 -0.32s-0.367 -0.198 -0.703 -0.307c-0.573 -0.278 -0.818 -0.289 -1.067 -0.139 -1.113 -0.3 -2.226 -0.599 -3.91 -1.095 -0.96 -0.222 -1.349 -0.247 -1.738 -0.272 -3.054 -1.706 -6.108 -3.411 -9.274 -5.628a29.273 29.273 0 0 0 -0.225 -0.962c0.06 -0.148 0.118 -0.299 0.439 -0.809a83.636 83.636 0 0 1 1.623 -1.98c0.306 -0.131 0.612 -0.262 1.043 -0.615 0.125 -0.22 0.54 -0.238 0.919 -0.389 0.69 -0.263 0.893 -0.478 0.988 -0.796 0.723 -0.239 1.446 -0.48 2.681 -0.881a17.773 17.773 0 0 0 1.93 -0.981s0.432 0.036 0.907 -0.045a12.964 12.964 0 0 0 1.964 -0.849s0.381 0.061 0.883 -0.006a42.864 42.864 0 0 0 3.009 -0.875c0.333 -0.005 0.668 -0.011 1.582 -0.086a48.091 48.091 0 0 0 3.233 -0.826c0.295 0.055 0.589 0.111 1.45 0.08 1.546 -0.222 2.526 -0.358 3.505 -0.494 1.052 -0.078 2.104 -0.157 3.823 -0.32 1.958 -0.215 3.249 -0.343 4.541 -0.473 0.156 0.039 0.312 0.078 1.114 0.126 3.156 -0.044 5.666 -0.097 8.178 -0.152 1.593 0.043 3.188 0.086 5.516 0.144 1.433 0.002 2.13 -0.011 3.157 0.099 1.968 0.292 3.606 0.458 5.243 0.626 0.408 0.087 0.816 0.174 1.851 0.33 1.289 0.112 1.951 0.155 2.614 0.199 0 0 0.077 -0.131 0.218 0.093 0.688 0.255 1.234 0.285 1.779 0.316 0.599 0.133 1.198 0.264 2.394 0.588 2.03 0.482 3.463 0.774 4.894 1.064 0.443 0.168 0.887 0.338 1.739 0.7 0.876 0.181 1.344 0.167 1.814 0.153z" stroke-width="0.9274185022026431"/><path fill="#A95615" opacity="1.000000" stroke="none" d="M132.686 189.3c-0.373 5.837 -3.717 9.679 -7.545 13.945 -4.733 5.273 -9.693 9.656 -16.079 12.528 -0.273 0.122 -0.588 0.152 -1.489 -0.033 -8.606 -0.31 -16.666 0.074 -24.237 -3.313 -7.167 -4.437 -12.316 -10.7 -16.211 -18.559 3.959 -0.068 7.818 0.498 11.699 0.837 1.447 0.126 3.404 0.257 4.325 -0.54 2.757 -2.386 3.003 -0.801 3.115 1.538 -0.006 -0.013 0.007 0 -0.278 0.016 -0.713 0.343 -1.141 0.671 -1.756 1.238a741.226 741.226 0 0 1 -2.251 2.739l0.939 1.54c3.553 -1.414 7.167 -2.705 10.609 -4.35 0.686 -0.328 0.721 -2.022 0.973 -3.233 -0.329 -0.046 -0.577 0.055 -1.135 0.167 -0.726 0.007 -1.138 0.005 -1.589 -0.322 -3.673 -3.249 -4.55 -7.283 -4.268 -11.563 2.166 0.718 3.985 1.417 5.849 1.96 5.041 1.468 10.101 2.871 15.444 4.345 1.017 0.329 1.744 0.612 2.735 1.178 4.101 0.044 7.938 -0.194 11.955 -0.625 0.688 -0.3 1.196 -0.41 1.907 -0.34 2.218 -0.897 4.235 -1.973 6.252 -3.05 0 0 -0.043 -0.019 0.222 0.204 0.445 1.378 0.628 2.534 0.811 3.691m-34.979 20.187 7.856 -6.297 -5.764 -6.927 -9.103 7.635c2.483 1.948 4.526 3.55 7.011 5.59M115.361 198.636c-3.836 -2.702 -7.909 -4.646 -13.394 -4.671 5.722 6.279 9 7.449 13.394 4.67m0.046 6.34c-5.101 -0.308 -9.521 0.784 -12.802 6.534 5.587 -1.224 10.514 -1.469 12.802 -6.534m-31.81 -0.002c-0.274 0.634 -0.826 1.801 -0.782 1.823 3.495 1.814 7.037 3.54 10.576 5.271l0.752 -1.533c-2.27 -3.482 -5.13 -6.012 -10.544 -5.562" stroke-width="0.9274185022026431"/><path fill="#FAF9F8" opacity="1.000000" stroke="none" d="M165.76 165.928c-0.241 0.753 -0.482 1.506 -0.695 2.559 -0.252 0.742 -0.533 1.186 -1.055 2.104 -4.844 5.015 -9.449 9.554 -14.052 14.094 -0.366 0.184 -0.732 0.368 -1.611 0.86a3863.996 3863.996 0 0 1 -11.024 6.283c0.675 -1.557 1.351 -3.112 2.053 -4.999 1.111 -3.834 2.193 -7.338 3.27 -11.194 1.425 -4.69 2.394 -9.253 4.392 -13.312 3.261 -6.621 8.445 -7.908 15.78 -4.153 1.072 1.335 1.722 2.27 2.37 3.524a9.932 9.932 0 0 0 0.404 1.532c-0.015 0.47 -0.028 0.941 -0.014 1.83 0.079 0.571 0.13 0.719 0.182 0.87" stroke-width="0.9274185022026431"/><path fill="#A65313" opacity="1.000000" stroke="none" d="M86.271 195.715c-0.119 -2.35 -0.364 -3.935 -3.121 -1.549 -0.922 0.798 -2.879 0.667 -4.325 0.54 -3.88 -0.34 -7.739 -0.905 -11.827 -1.13 -0.929 -2.937 -1.638 -6.122 -1.811 -9.631 5.534 -1.234 10.532 -2.146 15.529 -3.058a18.818 18.818 0 0 1 1.861 -0.052c1.962 0.363 3.284 0.686 4.605 1.011 0.045 4.37 0.922 8.404 4.297 11.787 -1.91 0.999 -3.561 1.54 -5.209 2.081" stroke-width="0.9274185022026431"/><path fill="#5B2304" opacity="1.000000" stroke="none" d="M87.511 181.936a358.591 358.591 0 0 0 -4.628 -1.133c2.241 -4.033 5.734 -0.986 8.136 -0.41 5.871 1.409 11.415 4.181 17.292 6.883 0.202 0.479 0.204 0.92 0.204 0.92 -5.053 -1.428 -10.113 -2.831 -15.154 -4.3 -1.864 -0.544 -3.683 -1.243 -5.849 -1.96" stroke-width="0.9274185022026431"/><path fill="#643820" opacity="1.000000" stroke="none" d="M98.861 150.112s-0.192 -0.371 -0.085 -0.549c3.534 -0.126 5.214 0.299 2.721 4.38 -1.642 2.69 -1.505 6.44 -2.306 9.68 -0.359 1.45 -1.065 2.815 -1.971 4.248 0.021 -5.027 -2.313 -10.369 1.688 -15.492 0.28 -1.026 0.116 -1.647 -0.047 -2.268" stroke-width="0.9274185022026431"/><path fill="#A55D27" opacity="1.000000" stroke="none" d="M83.449 212.63c7.46 3.183 15.519 2.8 23.785 3.106 0.266 0.251 0.313 0.371 -0.057 0.402 -6.286 -0.021 -12.203 -0.074 -18.12 -0.128 0 0 -0.028 0.067 -0.201 -0.202 -1.578 -0.825 -2.985 -1.38 -4.391 -1.935a20.909 20.909 0 0 1 -1.018 -1.243" stroke-width="0.9274185022026431"/><path fill="#5B2304" opacity="1.000000" stroke="none" d="M80.458 180.615c-4.739 1.184 -9.737 2.096 -15.108 3.024 -0.27 -0.593 -0.345 -1.611 -0.037 -1.744 2.015 -0.873 4.112 -1.555 7.117 -2.633 1.706 0.237 4.737 0.659 8.026 1.353" stroke-width="0.9274185022026431"/><path fill="#683B27" opacity="1.000000" stroke="none" d="M83.477 164.184c-0.456 -1.282 -0.592 -2.598 -0.804 -4.65 3.33 1.072 6.848 -2.457 9.11 2.39 -2.717 1.002 -5.352 1.614 -8.306 2.26" stroke-width="0.9274185022026431"/><path fill="#551D02" opacity="1.000000" stroke="none" d="M108.805 188.242c-0.29 -0.046 -0.293 -0.487 -0.29 -0.709a233.136 233.136 0 0 1 18.072 -0.853c-0.301 0.69 -0.844 1.144 -1.388 1.596 -0.508 0.109 -1.016 0.217 -2.132 0.556 -4.334 0.254 -8.063 0.279 -11.792 0.304a40.773 40.773 0 0 0 -2.469 -0.895" stroke-width="0.9274185022026431"/><path fill="#643820" opacity="1.000000" stroke="none" d="M97.15 176.917c-0.343 -2.028 -0.415 -4.229 -0.387 -6.832 3.257 1.261 3.435 3.524 0.387 6.832" stroke-width="0.9274185022026431"/><path fill="#A55C2A" opacity="1.000000" stroke="none" d="M132.962 189.121c-0.459 -0.976 -0.642 -2.133 -1.083 -3.535 0.589 -1.411 1.435 -2.578 2.281 -3.745 0.401 0.39 0.802 0.779 1.175 1.459 -0.719 2.074 -1.408 3.858 -2.374 5.82" stroke-width="0.9274185022026431"/><path fill="#A55C2A" opacity="1.000000" stroke="none" d="M125.401 188.456c0.341 -0.631 0.884 -1.085 1.569 -1.767 0.141 -0.229 0.103 -0.259 0.398 -0.268 0.806 -0.29 1.318 -0.571 1.83 -0.853 0.612 -0.062 1.225 -0.124 2.146 -0.175a36.905 36.905 0 0 1 -5.943 3.062" stroke-width="0.9274185022026431"/><path fill="#521D02" opacity="1.000000" stroke="none" d="M84.515 214.171c1.357 0.258 2.764 0.813 4.37 1.615 -0.802 0.264 -1.803 0.282 -3.181 0.297 -0.63 -0.54 -0.887 -1.078 -1.19 -1.912" stroke-width="0.9274185022026431"/><path fill="#643820" opacity="1.000000" stroke="none" d="M109.682 175.3c0.297 0.381 0.366 0.81 0.333 1.556 -0.256 -0.293 -0.41 -0.899 -0.333 -1.556" stroke-width="0.9274185022026431"/><path fill="#60331B" opacity="1.000000" stroke="none" d="M59.047 148.423c-0.155 0.507 -0.609 1.048 -1.302 1.708 0.176 -0.478 0.59 -1.077 1.302 -1.708" stroke-width="0.9274185022026431"/><path fill="#60331B" opacity="1.000000" stroke="none" d="M74.458 159.834c0.684 -0.184 1.626 -0.116 2.849 0.177 -0.675 0.177 -1.632 0.125 -2.849 -0.177" stroke-width="0.9274185022026431"/><path fill="#551D02" opacity="1.000000" stroke="none" d="M128.883 185.558c-0.197 0.292 -0.709 0.573 -1.519 0.884 0.202 -0.278 0.703 -0.588 1.518 -0.885" stroke-width="0.9274185022026431"/><path fill="#60331B" opacity="1.000000" stroke="none" d="M72.567 159.255c0.112 -0.269 0.356 -0.259 0.723 0.053 0.13 0.144 -0.235 0.171 -0.235 0.171s-0.349 -0.107 -0.488 -0.226" stroke-width="0.9274185022026431"/><path fill="#643820" opacity="1.000000" stroke="none" d="M108.629 154.265c0.197 -0.12 0.51 -0.05 0.876 0.276 -0.267 0.261 -0.538 0.148 -0.875 -0.276" stroke-width="0.9274185022026431"/><path fill="#60331B" opacity="1.000000" stroke="none" d="M67 157.975q0.254 -0.269 1.169 0.067c-0.168 0.177 -0.558 0.158 -1.169 -0.067" stroke-width="0.9274185022026431"/><path fill="#60331B" opacity="1.000000" stroke="none" d="M57.153 151.269c0.167 0.062 0.205 0.213 0.194 0.591 -0.139 -0.016 -0.232 -0.259 -0.194 -0.591" stroke-width="0.9274185022026431"/><path fill="#643820" opacity="1.000000" stroke="none" d="M109.519 154.955c0.37 -0.152 0.565 0.046 0.51 0.605 -0.333 0.07 -0.479 -0.136 -0.51 -0.605" stroke-width="0.9274185022026431"/><path fill="#643820" opacity="1.000000" stroke="none" d="M105.288 149.822c-0.048 0.028 0.048 -0.028 0 0" stroke-width="0.9274185022026431"/><path fill="#643820" opacity="1.000000" stroke="none" d="M109.825 170.764c0.115 -0.082 0.299 0.344 0.208 0.557 -0.385 0.052 -0.462 -0.178 -0.208 -0.557" stroke-width="0.9274185022026431"/><path fill="#60331B" opacity="1.000000" stroke="none" d="M80.095 172.752c0.181 -0.034 0.302 0.083 0.54 0.423 -0.122 0.059 -0.362 -0.108 -0.54 -0.423" stroke-width="0.9274185022026431"/><path fill="#60331B" opacity="1.000000" stroke="none" d="M79.782 160.789c0.276 -0.195 0.461 -0.087 0.417 0.349 -0.254 0.049 -0.349 -0.074 -0.417 -0.349" stroke-width="0.9274185022026431"/><path fill="#60331B" opacity="1.000000" stroke="none" d="M72.833 160.954c-0.05 0.029 0.051 -0.029 0 0" stroke-width="0.9274185022026431"/><path fill="#60331B" opacity="1.000000" stroke="none" d="M58.53 146.736c0.199 -0.11 0.442 0.065 0.74 0.52q-0.3 0.175 -0.741 -0.52" stroke-width="0.9274185022026431"/><path fill="#BF6420" opacity="1.000000" stroke="none" d="M102.569 115.251c-0.144 -0.115 -0.165 -0.314 -0.185 -0.512 0.102 0.143 0.206 0.285 0.185 0.512" stroke-width="0.9274185022026431"/><path fill="#F6EDE9" opacity="1.000000" stroke="none" d="M189.376 96.082c-0.59 1.382 -1.209 2.392 -1.952 3.671 -2.614 0.635 -5.527 1.954 -7.462 1.088 -1.755 -0.786 -3.067 -3.88 -3.33 -6.102 -0.12 -1.034 2.707 -2.416 5.061 -4.349 0 2.074 0.119 2.452 -0.019 2.639 -0.881 1.196 -1.816 2.351 -2.733 3.52 0.957 0.589 2.222 1.885 2.813 1.63 1.516 -0.658 3.946 -2.167 3.827 -3.043 -0.284 -2.12 -1.315 -4.769 -2.95 -5.935 -2.781 -1.984 -6.009 -0.612 -7.591 2.038 -2.047 3.429 -3.239 7.368 -4.799 11.088l1.011 0.659 3.524 -2.272c0.455 1.265 3.911 2.186 -0.501 3.695 -3.337 1.521 -6.38 2.824 -9.638 4.218 2.05 -5.711 3.833 -11.271 6.05 -16.652 1.614 -3.92 4.687 -6.548 9.154 -6.569 4.591 -0.022 7.896 2.133 9.435 7.02 0.093 1.308 0.08 2.298 0.097 3.659" stroke-width="0.9274185022026431"/><path fill="#EDE9E9" opacity="1.000000" stroke="none" d="M149.901 196.703c3.361 0.159 6.546 -0.059 9.382 0.834 4.572 1.437 7.218 6.609 5.282 10.189 -0.829 1.534 -3.119 2.671 -4.955 3.107 -0.98 0.233 -2.405 -1.412 -3.635 -2.214l5.242 -3.587c-1.45 -1.409 -2.715 -3.694 -4.389 -4.048 -3.661 -0.776 -7.529 -0.571 -11.68 -0.733 1.228 -1.119 2.825 -2.272 4.754 -3.548" stroke-width="0.9274185022026431"/><path fill="#EEEBEA" opacity="1.000000" stroke="none" d="M137.182 210.057c2.009 -0.103 4.202 -0.599 5.565 0.246 1.402 0.868 2.524 2.978 2.73 4.672 0.111 0.908 -1.961 2.083 -3.05 3.137l-1.106 -0.949 0.636 -4.625 -13.037 5.331 -0.624 -1.2c2.288 -1.796 4.578 -3.593 7.026 -5.65 0.666 -0.429 1.173 -0.597 1.861 -0.963" stroke-width="0.9274185022026431"/><path fill="#E6E2E2" opacity="1.000000" stroke="none" d="M134.23 207.349c-3.182 2.825 -6.239 5.587 -9.688 7.718 -2.353 1.453 -5.25 2.024 -8.284 3 4.251 -3.84 8.786 -7.816 13.596 -11.427 0.864 -0.648 2.86 0.213 4.375 0.71" stroke-width="0.9274185022026431"/><path fill="#562B14" opacity="1.000000" stroke="none" d="M150.107 185.031c4.455 -4.884 9.059 -9.424 13.895 -14.174 0.467 0.619 1.18 1.832 0.867 2.222 -3.311 4.121 -6.66 8.233 -10.322 12.036 -0.732 0.76 -2.826 0.209 -4.441 -0.083" stroke-width="0.9274185022026431"/><path fill="#562B14" opacity="1.000000" stroke="none" d="M137.227 192.096c3.598 -2.258 7.103 -4.25 10.904 -6.323 1.57 2.017 1.37 3.426 -1.211 4.441 -1.908 0.751 -3.532 2.196 -5.335 3.24 -1.78 1.031 -3.716 2.3 -4.358 -1.358" stroke-width="0.9274185022026431"/><path fill="#521D02" opacity="1.000000" stroke="none" d="M89.252 216.302c5.722 -0.238 11.638 -0.185 17.944 -0.102 -5.57 4.492 -11.659 2.439 -17.944 0.102" stroke-width="0.9274185022026431"/><path fill="#5B3626" opacity="1.000000" stroke="none" d="M111.624 218.996c0.838 0.246 1.377 0.571 1.916 0.895l-1.384 0.773c-0.278 -0.53 -0.555 -1.059 -0.533 -1.667" stroke-width="0.9274185022026431"/><path fill="#562B14" opacity="1.000000" stroke="none" d="M150.492 192.347c-0.117 0.146 -0.316 0.167 -0.515 0.188 0.144 -0.103 0.287 -0.209 0.514 -0.187" stroke-width="0.9274185022026431"/><path fill="#562B14" opacity="1.000000" stroke="none" d="M166.085 168.952c0.071 -0.154 0.228 -0.156 0.621 -0.157 -0.021 0.103 -0.278 0.206 -0.621 0.157" stroke-width="0.9274185022026431"/><path fill="#562B14" opacity="1.000000" stroke="none" d="M154.386 189.611c0.051 -0.029 -0.051 0.03 0 0" stroke-width="0.9274185022026431"/><path fill="#EFEBEA" opacity="1.000000" stroke="none" d="m36.749 197.651 7.399 -1.294c3.28 0.941 6.189 1.947 9.098 2.951l-0.424 1.45c-2.184 -0.432 -4.383 -1.261 -6.548 -1.186 -2.245 0.077 -4.642 0.682 -6.625 1.719 -1.437 0.752 -2.308 2.583 -3.431 3.933l4.984 3.082c-0.716 0.727 -1.906 2.61 -2.522 2.439 -2.133 -0.596 -4.933 -1.433 -5.828 -3.077 -0.876 -1.614 0.264 -4.325 0.658 -6.904 0.628 -0.769 1.12 -1.187 2 -1.931 0.674 -0.612 0.958 -0.897 1.243 -1.181" stroke-width="0.9274185022026431"/><path fill="#EDEAE9" opacity="1.000000" stroke="none" d="M52.38 212.191c3.208 -3.61 6.548 -2.974 9.73 -0.826 2.631 1.778 4.995 3.951 7.477 5.949q-0.319 0.623 -0.642 1.246l-13.867 -6.444 0.683 5.175c-4.112 -0.383 -4.128 -0.408 -3.38 -5.101" stroke-width="0.9274185022026431"/><path fill="#623A28" opacity="1.000000" stroke="none" d="M42.169 206.307c0.048 -0.028 -0.049 0.028 0 0" stroke-width="0.9274185022026431"/><path fill="#F6EDE9" opacity="1.000000" stroke="none" d="M27.628 106.546a352.318 352.318 0 0 1 -7.243 -3.261l2.012 -2.849 3.618 2.545 1.16 -0.628c-1.719 -3.906 -2.92 -8.168 -5.295 -11.62 -2.541 -3.691 -8.165 -2.874 -9.927 1.05 -0.55 1.226 -0.707 3.404 0.011 4.238 1.008 1.172 2.959 1.736 4.6 2.037 0.468 0.086 1.268 -1.648 1.916 -2.548l-4.462 -3.112c1.986 0 4.162 -0.64 5.145 0.169 1.113 0.917 2.084 3.805 1.474 4.647 -1.355 1.871 -3.889 4.318 -5.659 4.111 -2.379 -0.28 -5.328 -2.377 -6.524 -4.53 -1.771 -3.192 -0.3 -6.653 2.413 -9.139 2.89 -2.648 6.495 -3.327 9.83 -1.445 2.424 1.367 4.227 3.839 6.504 6.086 1.639 5.039 3.079 9.808 4.806 15.522a525.863 525.863 0 0 0 -4.383 -1.271" stroke-width="0.9274185022026431"/><path fill="#C0652B" opacity="1.000000" stroke="none" d="M41.241 86.667c0.05 -0.029 -0.051 0.03 0 0" stroke-width="0.9274185022026431"/><path fill="#65361D" opacity="1.000000" stroke="none" d="M165.19 161.376a67.954 67.954 0 0 1 -2.047 -3.067c2.238 -1.78 2.238 -1.78 3.461 2.72 -0.64 0.346 -1.027 0.347 -1.414 0.347" stroke-width="0.9274185022026431"/><path fill="#64361F" opacity="1.000000" stroke="none" d="M119.638 161.062c1.549 -0.708 3.236 -1.083 5.249 -1.417 -0.889 2.517 -2.592 3.436 -5.249 1.417" stroke-width="0.9274185022026431"/><path fill="#65361D" opacity="1.000000" stroke="none" d="M158.422 154.26c-1.05 0.346 -2.296 0.491 -3.541 0.636l-0.021 -0.837c1.122 0 2.242 0 3.561 0.202" stroke-width="0.9274185022026431"/><path fill="#562B14" opacity="1.000000" stroke="none" d="M165.189 161.697c0.389 -0.321 0.776 -0.322 1.452 -0.324 0.006 0.569 -0.276 1.138 -0.805 1.782 -0.378 -0.33 -0.513 -0.734 -0.647 -1.458" stroke-width="0.9274185022026431"/><path fill="#60331C" opacity="1.000000" stroke="none" d="M140.197 152.841c-0.215 -0.531 -0.184 -1.215 -0.168 -2.242a6.273 6.273 0 0 1 0.168 2.242" stroke-width="0.9274185022026431"/><path fill="#64361F" opacity="1.000000" stroke="none" d="M131.313 158.307c0.028 -0.237 0.365 -0.439 1.006 -0.641 -0.029 0.226 -0.362 0.451 -1.005 0.641" stroke-width="0.9274185022026431"/><path fill="#60331B" opacity="1.000000" stroke="none" d="M140.033 150.029c-0.255 0.063 -0.5 -0.111 -0.804 -0.507 -0.059 -0.225 0.374 -0.216 0.59 -0.209 0.218 0.164 0.222 0.322 0.214 0.716" stroke-width="0.9274185022026431"/><path fill="#562B14" opacity="1.000000" stroke="none" d="M165.946 165.875c-0.236 -0.097 -0.287 -0.247 -0.236 -0.612 0.29 -0.054 0.481 0.1 0.651 0.275 0.01 0.01 -0.148 0.185 -0.415 0.336" stroke-width="0.9274185022026431"/><path fill="#60331B" opacity="1.000000" stroke="none" d="M100.998 140.469c-2.414 0.397 -4.924 0.451 -7.848 0.433 2.065 -3.139 4.906 -1.988 7.848 -0.433" stroke-width="0.9274185022026431"/><path fill="#60331B" opacity="1.000000" stroke="none" d="M114.916 141.352c-1.543 0.162 -3.181 -0.004 -5.15 -0.513 -0.332 -0.341 -0.332 -0.777 -0.332 -0.777 1.796 0.32 3.593 0.64 5.483 1.289" stroke-width="0.9274185022026431"/><path fill="#60331B" opacity="1.000000" stroke="none" d="M83.232 141.431c-0.774 0.336 -1.753 0.473 -3.103 0.562 0.719 -0.285 1.808 -0.524 3.103 -0.562" stroke-width="0.9274185022026431"/><path fill="#60331B" opacity="1.000000" stroke="none" d="M128.625 143.909c-1.295 0.07 -2.728 -0.221 -4.452 -0.737 1.244 -0.024 2.78 0.177 4.452 0.737" stroke-width="0.9274185022026431"/><path fill="#60331B" opacity="1.000000" stroke="none" d="M91.564 140.613c-1.054 0.353 -2.345 0.482 -4.022 0.547 1.005 -0.301 2.394 -0.536 4.022 -0.547" stroke-width="0.9274185022026431"/><path fill="#60331B" opacity="1.000000" stroke="none" d="M119.393 141.929c-0.58 0.238 -1.243 0.195 -2.222 0.036 0.504 -0.185 1.32 -0.251 2.222 -0.036" stroke-width="0.9274185022026431"/><path fill="#60331B" opacity="1.000000" stroke="none" d="M78.12 142c-0.522 0.297 -1.406 0.549 -2.641 0.761 0.526 -0.294 1.401 -0.55 2.641 -0.761" stroke-width="0.9274185022026431"/><path fill="#60331B" opacity="1.000000" stroke="none" d="M73.32 142.916c-0.488 0.309 -1.322 0.579 -2.494 0.818 0.49 -0.307 1.318 -0.584 2.494 -0.819" stroke-width="0.9274185022026431"/><path fill="#60331C" opacity="1.000000" stroke="none" d="M109.131 140.056c0.302 0.005 0.303 0.441 0.304 0.659 -0.695 0.232 -1.393 0.244 -2.43 0.178 0.381 -0.332 1.102 -0.588 2.125 -0.836" stroke-width="0.9274185022026431"/><path fill="#60331B" opacity="1.000000" stroke="none" d="M69.486 143.815q-0.309 0.418 -1.486 0.763 0.309 -0.419 1.486 -0.763" stroke-width="0.9274185022026431"/><path fill="#60331B" opacity="1.000000" stroke="none" d="M66.62 144.719q-0.283 0.425 -1.414 0.819 0.282 -0.424 1.414 -0.819" stroke-width="0.9274185022026431"/><path fill="#60331B" opacity="1.000000" stroke="none" d="M121.272 142.419c-0.345 0.169 -0.891 0.139 -1.642 -0.075 0.343 -0.164 0.892 -0.144 1.641 0.074" stroke-width="0.9274185022026431"/><path fill="#60331B" opacity="1.000000" stroke="none" d="M62.079 146.629c0.121 0.281 -0.082 0.496 -0.621 0.615 -0.093 -0.27 0.118 -0.464 0.621 -0.615" stroke-width="0.9274185022026431"/><path fill="#60331B" opacity="1.000000" stroke="none" d="M131.89 144.978c-0.044 0.158 -0.513 0.171 -1.15 -0.02 0.13 -0.178 0.428 -0.152 1.15 0.02" stroke-width="0.9274185022026431"/><path fill="#EEE9E9" opacity="1.000000" stroke="none" d="M32.138 165.13c-1.064 -2.738 -1.912 -5.262 -2.76 -7.788l1.396 -1.137c3.896 3.01 7.793 6.019 11.756 9.333 -2.159 -0.505 -4.387 -1.315 -6.612 -2.123l-0.99 1.113 7.416 8.116c-5.727 -0.316 -7.919 -3.727 -10.207 -7.512" stroke-width="0.9274185022026431"/><path fill="#5F3726" opacity="1.000000" stroke="none" d="M36.438 197.719c0.028 0.217 -0.257 0.503 -0.828 0.891 -0.019 -0.204 0.251 -0.513 0.828 -0.891" stroke-width="0.9274185022026431"/><path fill="#60331B" opacity="1.000000" stroke="none" d="M136.179 147.094c-0.158 0.099 -0.453 0.018 -0.859 -0.274 0.205 -0.217 0.484 -0.118 0.859 0.274" stroke-width="0.9274185022026431"/><path fill="#58290E" opacity="1.000000" stroke="none" d="M98.757 150.465c0.269 0.268 0.432 0.889 0.315 1.657 -0.327 -0.336 -0.374 -0.821 -0.316 -1.657" stroke-width="0.9274185022026431"/><path fill="#C9762D" opacity="1.000000" stroke="none" d="M97.486 209.269a683.727 683.727 0 0 0 -6.79 -5.37l9.103 -7.635 5.765 6.928c-2.619 2.098 -5.237 4.197 -8.077 6.077" stroke-width="0.9274185022026431"/><path fill="#C9762D" opacity="1.000000" stroke="none" d="M86.266 195.703c1.655 -0.529 3.304 -1.069 5.25 -1.745 0.712 -0.132 1.126 -0.13 2.077 -0.132 0.538 -0.004 0.991 -0.025 0.991 -0.025 -0.335 1.064 -0.369 2.756 -1.056 3.084 -3.443 1.647 -7.056 2.937 -10.609 4.35l-0.939 -1.54c0.687 -0.834 1.375 -1.667 2.526 -2.785 0.899 -0.594 1.333 -0.901 1.768 -1.21 0 0 -0.014 -0.011 -0.007 0" stroke-width="0.9274185022026431"/><path fill="#C7742D" opacity="1.000000" stroke="none" d="M115.478 198.957c-4.509 2.458 -7.788 1.287 -13.509 -4.991 5.485 0.025 9.559 1.969 13.509 4.991" stroke-width="0.9274185022026431"/><path fill="#C7742E" opacity="1.000000" stroke="none" d="M115.711 205.093c-2.589 4.948 -7.516 5.194 -13.103 6.418 3.281 -5.75 7.701 -6.842 13.103 -6.418" stroke-width="0.9274185022026431"/><path fill="#C7742E" opacity="1.000000" stroke="none" d="M83.954 204.967c5.061 -0.443 7.922 2.087 10.19 5.569l-0.752 1.533c-3.538 -1.731 -7.08 -3.457 -10.576 -5.271 -0.044 -0.022 0.508 -1.19 1.136 -1.831" stroke-width="0.9274185022026431"/><path fill="#A55C2A" opacity="1.000000" stroke="none" d="M111.539 189.419c3.464 -0.308 7.192 -0.332 11.347 -0.395 -3.409 0.201 -7.246 0.439 -11.347 0.395" stroke-width="0.9274185022026431"/><path fill="#A65313" opacity="1.000000" stroke="none" d="M85.987 195.718c-0.148 0.292 -0.584 0.6 -1.293 0.953 0.153 -0.282 0.579 -0.609 1.293 -0.953" stroke-width="0.9274185022026431"/><path fill="#A65313" opacity="1.000000" stroke="none" d="M94.502 193.655c0.083 0.147 -0.371 0.167 -0.598 0.162 0.021 -0.107 0.269 -0.209 0.598 -0.162" stroke-width="0.9274185022026431"/></svg>